<svg version="1.2" xmlns="http://www.w3.org/2000/svg" viewBox="0 0 1000 1000" width="1000" height="1000">
	<title>6333048-ai</title>
	<style>
		.s0 { fill: #e0e0e0 } 
		.s1 { fill: #fafafa } 
		.s2 { fill: #ffffff } 
		.s3 { fill: #ebebeb } 
		.s4 { fill: #263238 } 
		.s5 { fill: #455a64 } 
		.s6 { fill: #ff725e } 
		.s7 { fill: #ae7461 } 
		.s8 { fill: #6f4439 } 
		.s9 { fill: #000000 } 
	</style>
	<g id="Background Complete">
		<g id="&lt;Group&gt;">
			<g id="&lt;Group&gt;">
				<g id="&lt;Group&gt;">
					<g id="&lt;Group&gt;">
						<g id="&lt;Group&gt;">
							<g id="&lt;Group&gt;">
								<g id="&lt;Group&gt;">
									<g id="&lt;Group&gt;">
										<g id="&lt;Group&gt;">
											<g id="&lt;Group&gt;">
												<path id="&lt;Path&gt;" class="s0" d="m922.2 257.2h-138.2v-144h138.2z"/>
											</g>
										</g>
									</g>
								</g>
							</g>
						</g>
					</g>
				</g>
			</g>
			<g id="&lt;Group&gt;">
				<g id="&lt;Group&gt;">
					<g id="&lt;Group&gt;">
						<g id="&lt;Group&gt;">
							<g id="&lt;Group&gt;">
								<g id="&lt;Group&gt;">
									<g id="&lt;Group&gt;">
										<g id="&lt;Group&gt;">
											<g id="&lt;Group&gt;">
												<path id="&lt;Path&gt;" class="s1" d="m912.8 257.2h-138.1v-144h138.1z"/>
											</g>
										</g>
									</g>
								</g>
							</g>
						</g>
					</g>
				</g>
				<g id="&lt;Group&gt;">
					<g id="&lt;Group&gt;">
						<g id="&lt;Group&gt;">
							<g id="&lt;Group&gt;">
								<g id="&lt;Group&gt;">
									<g id="&lt;Group&gt;">
										<g id="&lt;Group&gt;">
											<g id="&lt;Group&gt;">
												<path id="&lt;Compound Path&gt;" fill-rule="evenodd" class="s0" d="m912.9 257.3h-138.3v-144.1h138.3zm-138.2-0.1h138.1v-143.9h-138.1z"/>
											</g>
										</g>
									</g>
								</g>
							</g>
						</g>
					</g>
				</g>
			</g>
			<g id="&lt;Group&gt;">
				<g id="&lt;Group&gt;">
					<g id="&lt;Group&gt;">
						<g id="&lt;Group&gt;">
							<g id="&lt;Group&gt;">
								<g id="&lt;Group&gt;">
									<g id="&lt;Group&gt;">
										<g id="&lt;Group&gt;">
											<g id="&lt;Group&gt;">
												<path id="&lt;Path&gt;" class="s2" d="m894.3 237.9h-101v-105.3h101z"/>
											</g>
										</g>
									</g>
								</g>
							</g>
						</g>
					</g>
				</g>
			</g>
			<g id="&lt;Group&gt;">
				<g id="&lt;Group&gt;">
					<g id="&lt;Group&gt;">
						<g id="&lt;Group&gt;">
							<g id="&lt;Group&gt;">
								<g id="&lt;Group&gt;">
									<g id="&lt;Group&gt;">
										<g id="&lt;Group&gt;">
											<g id="&lt;Group&gt;">
												<g id="&lt;Group&gt;">
													<path id="&lt;Path&gt;" class="s0" d="m793.3 238.6c0 0.1-0.9 1.2-2.5 2.9-1.7 1.7-3.9 4-6.5 6.5-2.5 2.5-4.8 4.7-6.6 6.3-1.7 1.6-2.8 2.5-2.9 2.4-0.1-0.1 0.9-1.2 2.5-2.9 1.6-1.7 3.9-4 6.4-6.5 2.6-2.5 4.9-4.7 6.6-6.3 1.8-1.6 2.9-2.5 3-2.4z"/>
												</g>
											</g>
										</g>
									</g>
								</g>
							</g>
						</g>
					</g>
				</g>
			</g>
			<g id="&lt;Group&gt;">
				<g id="&lt;Group&gt;">
					<g id="&lt;Group&gt;">
						<g id="&lt;Group&gt;">
							<g id="&lt;Group&gt;">
								<g id="&lt;Group&gt;">
									<g id="&lt;Group&gt;">
										<g id="&lt;Group&gt;">
											<g id="&lt;Group&gt;">
												<g id="&lt;Group&gt;">
													<path id="&lt;Path&gt;" class="s0" d="m894.3 238.3c0.1-0.1 1.2 0.9 2.9 2.5 1.7 1.6 4 3.9 6.5 6.4 2.5 2.6 4.7 4.9 6.3 6.6 1.6 1.7 2.5 2.8 2.4 2.9-0.1 0.1-1.2-0.8-2.9-2.5-1.7-1.6-4-3.8-6.5-6.4-2.5-2.5-4.7-4.9-6.3-6.6-1.6-1.7-2.5-2.8-2.4-2.9z"/>
												</g>
											</g>
										</g>
									</g>
								</g>
							</g>
						</g>
					</g>
				</g>
			</g>
			<g id="&lt;Group&gt;">
				<g id="&lt;Group&gt;">
					<g id="&lt;Group&gt;">
						<g id="&lt;Group&gt;">
							<g id="&lt;Group&gt;">
								<g id="&lt;Group&gt;">
									<g id="&lt;Group&gt;">
										<g id="&lt;Group&gt;">
											<g id="&lt;Group&gt;">
												<g id="&lt;Group&gt;">
													<path id="&lt;Path&gt;" class="s0" d="m894 132.9c-0.1-0.1 0.9-1.2 2.5-2.9 1.6-1.7 3.9-4.1 6.4-6.6 2.5-2.5 4.9-4.7 6.6-6.3 1.7-1.6 2.8-2.5 2.9-2.4 0.1 0.1-0.9 1.2-2.5 2.9-1.6 1.7-3.9 4-6.4 6.5-2.6 2.5-4.9 4.7-6.6 6.3-1.7 1.6-2.8 2.5-2.9 2.5z"/>
												</g>
											</g>
										</g>
									</g>
								</g>
							</g>
						</g>
					</g>
				</g>
			</g>
			<g id="&lt;Group&gt;">
				<g id="&lt;Group&gt;">
					<g id="&lt;Group&gt;">
						<g id="&lt;Group&gt;">
							<g id="&lt;Group&gt;">
								<g id="&lt;Group&gt;">
									<g id="&lt;Group&gt;">
										<g id="&lt;Group&gt;">
											<g id="&lt;Group&gt;">
												<g id="&lt;Group&gt;">
													<path id="&lt;Path&gt;" class="s0" d="m793 133.1c-0.1 0.1-1.2-0.9-2.9-2.5-1.7-1.6-4-3.9-6.5-6.4-2.5-2.5-4.8-4.9-6.3-6.6-1.6-1.7-2.6-2.8-2.5-2.9 0.1-0.1 1.2 0.8 2.9 2.5 1.7 1.6 4 3.8 6.5 6.4 2.5 2.5 4.8 4.9 6.4 6.6 1.5 1.7 2.5 2.8 2.4 2.9z"/>
												</g>
											</g>
										</g>
									</g>
								</g>
							</g>
						</g>
					</g>
				</g>
			</g>
			<g id="&lt;Group&gt;">
				<g id="&lt;Group&gt;">
					<g id="&lt;Group&gt;">
						<g id="&lt;Group&gt;">
							<g id="&lt;Group&gt;">
								<g id="&lt;Group&gt;">
									<g id="&lt;Group&gt;">
										<g id="&lt;Group&gt;">
											<g id="&lt;Group&gt;">
												<g id="&lt;Group&gt;">
													<path id="&lt;Path&gt;" class="s0" d="m894 237.9q0-0.1 0-0.6 0-0.5-0.1-1.4 0-2 0-5.7c0-5-0.1-12.3-0.1-21.5-0.1-18.4-0.1-44.7-0.2-76.1l0.4 0.4c-29.4 0-64 0-100.7 0l0.4-0.4c0 38.6 0 74.8-0.1 105.3l-0.3-0.4c30.1 0.1 55.3 0.1 72.9 0.2 8.8 0 15.7 0 20.5 0.1q3.5 0 5.4 0 0.9 0 1.4 0 0.5 0 0.5 0.1 0 0-0.5 0-0.5 0-1.3 0-1.9 0-5.4 0c-4.7 0.1-11.6 0.1-20.4 0.1-17.6 0.1-42.9 0.2-73.1 0.2h-0.4v-0.3c0-30.5-0.1-66.7-0.1-105.3v-0.5h0.5c36.7 0 71.3 0.1 100.7 0.1h0.4v0.4c-0.1 31.5-0.2 57.9-0.2 76.4-0.1 9.2-0.1 16.4-0.1 21.4q-0.1 3.6-0.1 5.6 0 0.9 0 1.4 0 0.5 0 0.5z"/>
												</g>
											</g>
										</g>
									</g>
								</g>
							</g>
						</g>
					</g>
				</g>
			</g>
			<g id="&lt;Group&gt;">
				<g id="&lt;Group&gt;">
					<g id="&lt;Group&gt;">
						<g id="&lt;Group&gt;">
							<g id="&lt;Group&gt;">
								<g id="&lt;Group&gt;">
									<g id="&lt;Group&gt;">
										<g id="&lt;Group&gt;">
											<g id="&lt;Group&gt;">
												<path id="&lt;Path&gt;" class="s3" d="m860.6 202.1h-33.7v-33.7h33.7z"/>
											</g>
										</g>
									</g>
								</g>
							</g>
						</g>
					</g>
				</g>
			</g>
		</g>
		<g id="&lt;Group&gt;">
			<g id="&lt;Group&gt;">
				<g id="&lt;Group&gt;">
					<g id="&lt;Group&gt;">
						<g id="&lt;Group&gt;">
							<g id="&lt;Group&gt;">
								<g id="&lt;Group&gt;">
									<g id="&lt;Group&gt;">
										<g id="&lt;Group&gt;">
											<g id="&lt;Group&gt;">
												<path id="&lt;Path&gt;" class="s0" d="m922.2 456.6h-138.2v-144h138.2z"/>
											</g>
										</g>
									</g>
								</g>
							</g>
						</g>
					</g>
				</g>
			</g>
			<g id="&lt;Group&gt;">
				<g id="&lt;Group&gt;">
					<g id="&lt;Group&gt;">
						<g id="&lt;Group&gt;">
							<g id="&lt;Group&gt;">
								<g id="&lt;Group&gt;">
									<g id="&lt;Group&gt;">
										<g id="&lt;Group&gt;">
											<g id="&lt;Group&gt;">
												<path id="&lt;Path&gt;" class="s1" d="m912.8 456.6h-138.1v-144h138.1z"/>
											</g>
										</g>
									</g>
								</g>
							</g>
						</g>
					</g>
				</g>
				<g id="&lt;Group&gt;">
					<g id="&lt;Group&gt;">
						<g id="&lt;Group&gt;">
							<g id="&lt;Group&gt;">
								<g id="&lt;Group&gt;">
									<g id="&lt;Group&gt;">
										<g id="&lt;Group&gt;">
											<g id="&lt;Group&gt;">
												<path id="&lt;Compound Path&gt;" fill-rule="evenodd" class="s0" d="m912.9 456.6h-138.3v-144.1h138.3zm-138.2-0.1h138.1v-143.9h-138.1z"/>
											</g>
										</g>
									</g>
								</g>
							</g>
						</g>
					</g>
				</g>
			</g>
			<g id="&lt;Group&gt;">
				<g id="&lt;Group&gt;">
					<g id="&lt;Group&gt;">
						<g id="&lt;Group&gt;">
							<g id="&lt;Group&gt;">
								<g id="&lt;Group&gt;">
									<g id="&lt;Group&gt;">
										<g id="&lt;Group&gt;">
											<g id="&lt;Group&gt;">
												<path id="&lt;Path&gt;" class="s2" d="m894.3 437.2h-101v-105.3h101z"/>
											</g>
										</g>
									</g>
								</g>
							</g>
						</g>
					</g>
				</g>
			</g>
			<g id="&lt;Group&gt;">
				<g id="&lt;Group&gt;">
					<g id="&lt;Group&gt;">
						<g id="&lt;Group&gt;">
							<g id="&lt;Group&gt;">
								<g id="&lt;Group&gt;">
									<g id="&lt;Group&gt;">
										<g id="&lt;Group&gt;">
											<g id="&lt;Group&gt;">
												<g id="&lt;Group&gt;">
													<path id="&lt;Path&gt;" class="s0" d="m793.3 437.9c0 0.1-0.9 1.2-2.5 2.9-1.7 1.7-3.9 4-6.5 6.5-2.5 2.5-4.8 4.8-6.6 6.3-1.7 1.6-2.8 2.6-2.9 2.5-0.1-0.1 0.9-1.2 2.5-2.9 1.6-1.7 3.9-4 6.4-6.5 2.6-2.5 4.9-4.8 6.6-6.4 1.8-1.5 2.9-2.5 3-2.4z"/>
												</g>
											</g>
										</g>
									</g>
								</g>
							</g>
						</g>
					</g>
				</g>
			</g>
			<g id="&lt;Group&gt;">
				<g id="&lt;Group&gt;">
					<g id="&lt;Group&gt;">
						<g id="&lt;Group&gt;">
							<g id="&lt;Group&gt;">
								<g id="&lt;Group&gt;">
									<g id="&lt;Group&gt;">
										<g id="&lt;Group&gt;">
											<g id="&lt;Group&gt;">
												<g id="&lt;Group&gt;">
													<path id="&lt;Path&gt;" class="s0" d="m894.3 437.7c0.1-0.1 1.2 0.8 2.9 2.5 1.7 1.6 4 3.8 6.5 6.4 2.5 2.5 4.7 4.9 6.3 6.6 1.6 1.7 2.5 2.8 2.4 2.9-0.1 0.1-1.2-0.9-2.9-2.5-1.7-1.6-4-3.9-6.5-6.4-2.5-2.6-4.7-4.9-6.3-6.6-1.6-1.8-2.5-2.9-2.4-2.9z"/>
												</g>
											</g>
										</g>
									</g>
								</g>
							</g>
						</g>
					</g>
				</g>
			</g>
			<g id="&lt;Group&gt;">
				<g id="&lt;Group&gt;">
					<g id="&lt;Group&gt;">
						<g id="&lt;Group&gt;">
							<g id="&lt;Group&gt;">
								<g id="&lt;Group&gt;">
									<g id="&lt;Group&gt;">
										<g id="&lt;Group&gt;">
											<g id="&lt;Group&gt;">
												<g id="&lt;Group&gt;">
													<path id="&lt;Path&gt;" class="s0" d="m894 332.2c-0.1-0.1 0.9-1.2 2.5-2.9 1.6-1.7 3.9-4 6.4-6.5 2.5-2.5 4.9-4.7 6.6-6.3 1.7-1.6 2.8-2.5 2.9-2.4 0.1 0.1-0.9 1.1-2.5 2.8-1.6 1.7-3.9 4.1-6.4 6.6-2.6 2.5-4.9 4.7-6.6 6.3-1.7 1.6-2.8 2.5-2.9 2.4z"/>
												</g>
											</g>
										</g>
									</g>
								</g>
							</g>
						</g>
					</g>
				</g>
			</g>
			<g id="&lt;Group&gt;">
				<g id="&lt;Group&gt;">
					<g id="&lt;Group&gt;">
						<g id="&lt;Group&gt;">
							<g id="&lt;Group&gt;">
								<g id="&lt;Group&gt;">
									<g id="&lt;Group&gt;">
										<g id="&lt;Group&gt;">
											<g id="&lt;Group&gt;">
												<g id="&lt;Group&gt;">
													<path id="&lt;Path&gt;" class="s0" d="m793 332.5c-0.1 0.1-1.2-0.9-2.9-2.5-1.7-1.6-4-3.9-6.5-6.4-2.5-2.6-4.8-4.9-6.3-6.6-1.6-1.8-2.6-2.9-2.5-3 0.1 0 1.2 0.9 2.9 2.5 1.7 1.6 4 3.9 6.5 6.5 2.5 2.5 4.8 4.8 6.4 6.6 1.5 1.7 2.5 2.8 2.4 2.9z"/>
												</g>
											</g>
										</g>
									</g>
								</g>
							</g>
						</g>
					</g>
				</g>
			</g>
			<g id="&lt;Group&gt;">
				<g id="&lt;Group&gt;">
					<g id="&lt;Group&gt;">
						<g id="&lt;Group&gt;">
							<g id="&lt;Group&gt;">
								<g id="&lt;Group&gt;">
									<g id="&lt;Group&gt;">
										<g id="&lt;Group&gt;">
											<g id="&lt;Group&gt;">
												<g id="&lt;Group&gt;">
													<path id="&lt;Path&gt;" class="s0" d="m894 437.2q0 0 0-0.5 0-0.5-0.1-1.5 0-1.9 0-5.6c0-5-0.1-12.3-0.1-21.5-0.1-18.4-0.1-44.7-0.2-76.2l0.4 0.4c-29.4 0-64 0.1-100.7 0.1l0.4-0.5c0 38.7 0 74.8-0.1 105.3l-0.3-0.4c30.1 0.1 55.3 0.2 72.9 0.2 8.8 0.1 15.7 0.1 20.5 0.1q3.5 0.1 5.4 0.1 0.9 0 1.4 0 0.5 0 0.5 0 0 0-0.5 0-0.5 0.1-1.3 0.1-1.9 0-5.4 0c-4.7 0-11.6 0.1-20.4 0.1-17.6 0.1-42.9 0.1-73.1 0.2h-0.4v-0.4c0-30.5-0.1-66.6-0.1-105.3v-0.4h0.5c36.7 0 71.3 0 100.7 0h0.4v0.4c-0.1 31.6-0.2 57.9-0.2 76.4-0.1 9.2-0.1 16.5-0.1 21.4q-0.1 3.7-0.1 5.6 0 0.9 0 1.5 0 0.4 0 0.4z"/>
												</g>
											</g>
										</g>
									</g>
								</g>
							</g>
						</g>
					</g>
				</g>
			</g>
			<g id="&lt;Group&gt;">
				<g id="&lt;Group&gt;">
					<g id="&lt;Group&gt;">
						<g id="&lt;Group&gt;">
							<g id="&lt;Group&gt;">
								<g id="&lt;Group&gt;">
									<g id="&lt;Group&gt;">
										<g id="&lt;Group&gt;">
											<g id="&lt;Group&gt;">
												<path id="&lt;Path&gt;" class="s3" d="m860.6 401.4h-33.7v-33.7h33.7z"/>
											</g>
										</g>
									</g>
								</g>
							</g>
						</g>
					</g>
				</g>
			</g>
		</g>
		<g id="&lt;Group&gt;">
			<g id="&lt;Group&gt;">
				<g id="&lt;Group&gt;">
					<g id="&lt;Group&gt;">
						<g id="&lt;Group&gt;">
							<g id="&lt;Group&gt;">
								<g id="&lt;Group&gt;">
									<g id="&lt;Group&gt;">
										<g id="&lt;Group&gt;">
											<g id="&lt;Group&gt;">
												<path id="&lt;Path&gt;" class="s0" d="m201.3 575.9h-109v-113.6h109z"/>
											</g>
										</g>
									</g>
								</g>
							</g>
						</g>
					</g>
				</g>
			</g>
			<g id="&lt;Group&gt;">
				<g id="&lt;Group&gt;">
					<g id="&lt;Group&gt;">
						<g id="&lt;Group&gt;">
							<g id="&lt;Group&gt;">
								<g id="&lt;Group&gt;">
									<g id="&lt;Group&gt;">
										<g id="&lt;Group&gt;">
											<g id="&lt;Group&gt;">
												<path id="&lt;Path&gt;" class="s1" d="m193.9 575.9h-109v-113.6h109z"/>
											</g>
										</g>
									</g>
								</g>
							</g>
						</g>
					</g>
				</g>
				<g id="&lt;Group&gt;">
					<g id="&lt;Group&gt;">
						<g id="&lt;Group&gt;">
							<g id="&lt;Group&gt;">
								<g id="&lt;Group&gt;">
									<g id="&lt;Group&gt;">
										<g id="&lt;Group&gt;">
											<g id="&lt;Group&gt;">
												<path id="&lt;Compound Path&gt;" fill-rule="evenodd" class="s0" d="m193.9 575.9h-109v-113.6h109zm-108.9-0.1h108.9v-113.5h-108.9z"/>
											</g>
										</g>
									</g>
								</g>
							</g>
						</g>
					</g>
				</g>
			</g>
			<g id="&lt;Group&gt;">
				<g id="&lt;Group&gt;">
					<g id="&lt;Group&gt;">
						<g id="&lt;Group&gt;">
							<g id="&lt;Group&gt;">
								<g id="&lt;Group&gt;">
									<g id="&lt;Group&gt;">
										<g id="&lt;Group&gt;">
											<g id="&lt;Group&gt;">
												<path id="&lt;Path&gt;" class="s2" d="m179.3 560.6h-79.7v-83h79.7z"/>
											</g>
										</g>
									</g>
								</g>
							</g>
						</g>
					</g>
				</g>
			</g>
			<g id="&lt;Group&gt;">
				<g id="&lt;Group&gt;">
					<g id="&lt;Group&gt;">
						<g id="&lt;Group&gt;">
							<g id="&lt;Group&gt;">
								<g id="&lt;Group&gt;">
									<g id="&lt;Group&gt;">
										<g id="&lt;Group&gt;">
											<g id="&lt;Group&gt;">
												<g id="&lt;Group&gt;">
													<path id="&lt;Path&gt;" class="s0" d="m99.6 561.2c0 0.1-0.7 0.9-2 2.3-1.3 1.3-3 3.1-5 5.1-2.1 2-3.9 3.7-5.3 5-1.3 1.2-2.2 2-2.3 1.9 0-0.1 0.7-0.9 2-2.3 1.3-1.3 3.1-3.1 5.1-5.1 2-2 3.8-3.8 5.2-5 1.3-1.3 2.2-2 2.3-1.9z"/>
												</g>
											</g>
										</g>
									</g>
								</g>
							</g>
						</g>
					</g>
				</g>
			</g>
			<g id="&lt;Group&gt;">
				<g id="&lt;Group&gt;">
					<g id="&lt;Group&gt;">
						<g id="&lt;Group&gt;">
							<g id="&lt;Group&gt;">
								<g id="&lt;Group&gt;">
									<g id="&lt;Group&gt;">
										<g id="&lt;Group&gt;">
											<g id="&lt;Group&gt;">
												<g id="&lt;Group&gt;">
													<path id="&lt;Path&gt;" class="s0" d="m179.3 561c0-0.1 0.9 0.7 2.2 2 1.4 1.2 3.2 3 5.2 5 1.9 2 3.7 3.9 5 5.2 1.2 1.4 1.9 2.3 1.9 2.3-0.1 0.1-1-0.7-2.3-1.9-1.3-1.3-3.2-3.1-5.1-5.1-2-2-3.8-3.9-5-5.2-1.3-1.4-2-2.3-1.9-2.3z"/>
												</g>
											</g>
										</g>
									</g>
								</g>
							</g>
						</g>
					</g>
				</g>
			</g>
			<g id="&lt;Group&gt;">
				<g id="&lt;Group&gt;">
					<g id="&lt;Group&gt;">
						<g id="&lt;Group&gt;">
							<g id="&lt;Group&gt;">
								<g id="&lt;Group&gt;">
									<g id="&lt;Group&gt;">
										<g id="&lt;Group&gt;">
											<g id="&lt;Group&gt;">
												<g id="&lt;Group&gt;">
													<path id="&lt;Path&gt;" class="s0" d="m179 477.8c0-0.1 0.7-0.9 2-2.3 1.3-1.3 3.1-3.1 5.1-5.1 2-2 3.8-3.7 5.2-5 1.3-1.2 2.2-2 2.3-1.9 0 0.1-0.7 0.9-2 2.3-1.3 1.3-3 3.1-5.1 5.1-2 2-3.8 3.7-5.2 5-1.3 1.2-2.2 2-2.3 1.9z"/>
												</g>
											</g>
										</g>
									</g>
								</g>
							</g>
						</g>
					</g>
				</g>
			</g>
			<g id="&lt;Group&gt;">
				<g id="&lt;Group&gt;">
					<g id="&lt;Group&gt;">
						<g id="&lt;Group&gt;">
							<g id="&lt;Group&gt;">
								<g id="&lt;Group&gt;">
									<g id="&lt;Group&gt;">
										<g id="&lt;Group&gt;">
											<g id="&lt;Group&gt;">
												<g id="&lt;Group&gt;">
													<path id="&lt;Path&gt;" class="s0" d="m99.4 478c-0.1 0.1-1-0.7-2.3-2-1.4-1.2-3.2-3-5.2-5-1.9-2-3.7-3.9-4.9-5.2-1.3-1.4-2-2.3-2-2.3 0.1-0.1 1 0.7 2.3 1.9 1.4 1.3 3.2 3.1 5.2 5.1 1.9 2 3.7 3.9 5 5.2 1.2 1.4 1.9 2.2 1.9 2.3z"/>
												</g>
											</g>
										</g>
									</g>
								</g>
							</g>
						</g>
					</g>
				</g>
			</g>
			<g id="&lt;Group&gt;">
				<g id="&lt;Group&gt;">
					<g id="&lt;Group&gt;">
						<g id="&lt;Group&gt;">
							<g id="&lt;Group&gt;">
								<g id="&lt;Group&gt;">
									<g id="&lt;Group&gt;">
										<g id="&lt;Group&gt;">
											<g id="&lt;Group&gt;">
												<g id="&lt;Group&gt;">
													<path id="&lt;Path&gt;" class="s0" d="m179 560.6q0 0 0-0.4 0-0.4 0-1.1 0-1.6 0-4.5c-0.1-3.9-0.1-9.7-0.1-16.9-0.1-14.6-0.1-35.3-0.2-60.1l0.3 0.3c-23.2 0-50.4 0-79.4 0l0.3-0.3c0 30.5 0 59 0 83l-0.3-0.3c23.8 0.1 43.6 0.2 57.5 0.2 7 0 12.4 0 16.2 0.1q2.8 0 4.2 0 0.7 0 1.2 0 0.3 0 0.3 0 0 0-0.3 0.1-0.4 0-1.1 0-1.5 0-4.2 0c-3.7 0-9.2 0.1-16.1 0.1-13.9 0-33.8 0.1-57.7 0.1h-0.3v-0.3c0-24-0.1-52.5-0.1-83v-0.4h0.4c29 0 56.2 0.1 79.4 0.1h0.3v0.3c0 24.9-0.1 45.7-0.1 60.3 0 7.2-0.1 12.9-0.1 16.8q0 2.9 0 4.4 0 0.8 0 1.2-0.1 0.3-0.1 0.3z"/>
												</g>
											</g>
										</g>
									</g>
								</g>
							</g>
						</g>
					</g>
				</g>
			</g>
			<g id="&lt;Group&gt;">
				<g id="&lt;Group&gt;">
					<g id="&lt;Group&gt;">
						<g id="&lt;Group&gt;">
							<g id="&lt;Group&gt;">
								<g id="&lt;Group&gt;">
									<g id="&lt;Group&gt;">
										<g id="&lt;Group&gt;">
											<g id="&lt;Group&gt;">
												<path id="&lt;Path&gt;" class="s3" d="m152.7 532.4h-26.6v-26.6h26.6z"/>
											</g>
										</g>
									</g>
								</g>
							</g>
						</g>
					</g>
				</g>
			</g>
		</g>
		<g id="&lt;Group&gt;">
			<g id="&lt;Group&gt;">
				<path id="&lt;Path&gt;" class="s0" d="m876.6 561.3q10.1-1.5 20.2-3c-3 10.9-6 21.9-12 31.4-5.9 9.6-15.2 17.7-26.4 19.4q8.3 0.7 16.6 1.4c-5.4 48.9-25.4 98.7-50.3 141.1l6.6-118.1c7.5-22.9 15.1-46 27-67 11.8-21.1 28.2-40.2 49.6-51.3-4 18.7-15.5 35.6-31.3 46.1z"/>
			</g>
			<g id="&lt;Group&gt;">
				<path id="&lt;Path&gt;" class="s3" d="m821 779.3c0 0-54.1-64.7-53.4-126.5h21.8c0 0-23.7-15.6-21.9-24.4 1.9-8.7 2.5-41.8 2.5-41.8l20 5c0 0-15-7.5-16.8-19.3-1.9-11.9 4.3-66.8 4.3-66.8 0 0 24.4 25.6 31.9 51.8 7.5 26.2 27.1 56.8 21.4 136.7-5.8 79.9-9.8 85.3-9.8 85.3z"/>
			</g>
			<g id="&lt;Group&gt;">
				<path id="&lt;Path&gt;" class="s3" d="m860.2 715.9c12.9-65.5 35.4-85.8 47.1-105.3 11.8-19.4 37-34.7 37-34.7 0 0-7 45.6-11.1 54.7-4.2 9.1-17.8 11.9-17.8 11.9l17.1 0.3c0 0-6.7 26.8-7.1 34.2-0.4 7.4-22.9 14.8-22.9 14.8l17.5 4.8c-13 49.8-71.6 88.8-71.6 88.8 0 0-1-4 11.8-69.5z"/>
			</g>
			<g id="&lt;Group&gt;">
				<g id="&lt;Group&gt;">
					<path id="&lt;Path&gt;" class="s0" d="m792.3 561.9q0 0 0.2 0.7 0.2 0.7 0.5 2 0.6 2.7 1.7 7.6c0.8 3.4 1.6 7.5 2.6 12.2 0.9 4.8 2.1 10.2 3.2 16.2 2.3 12 4.7 26.4 7.2 42.3 2.5 16 4.9 33.6 7.1 52.1 2.1 18.6 3.7 36.3 5 52.4 1.2 16.1 2.1 30.6 2.6 42.9 0.3 6.1 0.4 11.6 0.6 16.4 0.1 4.9 0.2 9.1 0.2 12.5q0.1 5.1 0.1 7.9 0 1.2 0 2 0 0.7 0 0.7 0 0-0.1-0.7 0-0.8-0.1-2-0.1-2.8-0.3-7.9c0-3.4-0.2-7.6-0.4-12.4-0.2-4.9-0.4-10.4-0.8-16.5-0.5-12.2-1.5-26.7-2.7-42.8-1.4-16.1-3-33.8-5.2-52.3-2.1-18.5-4.5-36.1-6.9-52.1-2.5-16-4.8-30.3-7.1-42.3-1-6.1-2.1-11.5-3-16.3-0.9-4.7-1.7-8.8-2.4-12.2q-1-4.9-1.5-7.7-0.3-1.3-0.4-2-0.1-0.7-0.1-0.7z"/>
				</g>
			</g>
			<g id="&lt;Group&gt;">
				<path id="&lt;Path&gt;" class="s3" d="m813.5 819c0 0-49.5-56.2-64.9-90.2l11.6-4.9c-8.4 1.4-17-2.2-23.5-7.7-6.5-5.5-11.3-12.7-16-19.8l15.3-2.6c-13.9-3.9-26.2-13.4-33.4-25.9 18 3 34.3 12.9 47.8 25.3 10.9 10 20.1 21.6 28.9 33.5 4.4 5.8 8.1 12 11.3 18.5 8.3 17.2 22.9 53.1 22.9 73.8z"/>
			</g>
			<g id="&lt;Group&gt;">
				<g id="&lt;Group&gt;">
					<path id="&lt;Path&gt;" class="s0" d="m920.8 608.6q0 0-0.2 0.6-0.3 0.6-0.8 1.6-1 2.3-3 6.3c-2.6 5.4-6.4 13.2-10.9 22.9-4.6 9.8-9.8 21.4-15.5 34.5-5.6 13-11.5 27.5-17.5 42.7-5.9 15.3-11.2 30-15.8 43.4-4.6 13.5-8.6 25.7-11.7 35.9-3.2 10.3-5.7 18.6-7.4 24.4q-1.2 4.2-1.9 6.6-0.4 1.1-0.6 1.7-0.2 0.6-0.2 0.6 0 0 0.1-0.6 0.2-0.7 0.5-1.7 0.6-2.4 1.7-6.7c1.6-5.8 4-14.2 7.1-24.5 3-10.3 6.9-22.5 11.5-36 4.6-13.4 9.9-28.1 15.8-43.4 5.9-15.3 11.9-29.8 17.5-42.8 5.7-13 11.1-24.7 15.7-34.4 4.6-9.7 8.5-17.5 11.3-22.8q2-4 3.2-6.2 0.5-0.9 0.8-1.5 0.3-0.6 0.3-0.6z"/>
				</g>
			</g>
			<g id="&lt;Group&gt;">
				<g id="&lt;Group&gt;">
					<path id="&lt;Path&gt;" class="s0" d="m817.7 843q0 0-0.2-1-0.2-1.2-0.5-3c-0.4-2.6-1-6.3-1.9-10.9-0.9-4.6-2.2-10-3.8-16-1.7-6-3.8-12.4-6.3-19.1-2.5-6.7-5.3-12.9-7.9-18.5-2.8-5.6-5.4-10.5-7.8-14.5-2.3-4.1-4.3-7.3-5.7-9.5q-1-1.5-1.6-2.5-0.6-0.9-0.5-1 0 0 0.6 0.8 0.7 1 1.8 2.5c1.5 2.1 3.6 5.3 6.1 9.3 2.4 4 5.1 8.9 7.9 14.5 2.8 5.5 5.6 11.8 8.1 18.5 2.5 6.7 4.6 13.2 6.2 19.2 1.6 6.1 2.8 11.5 3.6 16.2 0.8 4.6 1.3 8.3 1.6 11q0.2 1.8 0.3 3 0.1 1 0 1z"/>
				</g>
			</g>
			<g id="&lt;Group&gt;">
				<path id="&lt;Path&gt;" class="s0" d="m883 851.9h-108.3v-22.1h108.3z"/>
			</g>
			<g id="&lt;Group&gt;">
				<path id="&lt;Path&gt;" class="s0" d="m873.1 851.9l-11.5 63.4h-65.5l-11.1-63.4z"/>
			</g>
			<g id="&lt;Group&gt;">
				<g id="&lt;Group&gt;">
					<path id="&lt;Path&gt;" class="s3" d="m876.4 851.9c0 0.3-20.5 0.5-45.8 0.5-25.3 0-45.8-0.2-45.8-0.5 0-0.3 20.5-0.5 45.8-0.5 25.3 0 45.8 0.2 45.8 0.5z"/>
				</g>
			</g>
		</g>
		<g id="&lt;Group&gt;">
			<g id="&lt;Group&gt;">
				<g id="&lt;Group&gt;">
					<path id="&lt;Path&gt;" class="s0" d="m240.2 387.3h-175.9v-285.7h175.9z"/>
				</g>
			</g>
			<g id="&lt;Group&gt;">
				<g id="&lt;Group&gt;">
					<path id="&lt;Path&gt;" class="s3" d="m234.3 387.3h-175.9v-285.7h175.9z"/>
				</g>
			</g>
			<g id="&lt;Group&gt;">
				<g id="&lt;Group&gt;">
					<path id="&lt;Path&gt;" class="s2" d="m226.8 381.5h-160.9v-274.1h160.9z"/>
				</g>
			</g>
			<g id="&lt;Group&gt;">
				<g id="&lt;Group&gt;">
					<g id="&lt;Group&gt;">
						<path id="&lt;Path&gt;" class="s3" d="m195.5 345.9h-99v-202.9h99z"/>
					</g>
				</g>
				<g id="&lt;Group&gt;">
					<g id="&lt;Group&gt;">
						<path id="&lt;Path&gt;" class="s0" d="m96.5 274.1c-0.2-18.9 17.2-37.4 36.3-40.1 9.1-1.2 18.8 0.5 27.3-2.9 15.2-6.1 20.1-25.9 35.4-31.8l0.7 146.6h-99.7z"/>
					</g>
				</g>
			</g>
		</g>
	</g>
	<g id="Floor">
		<g id="&lt;Group&gt;">
			<g id="&lt;Group&gt;">
				<path id="&lt;Path&gt;" class="s4" d="m945 916.2c0 0.2-199.2 0.5-445 0.5-245.8 0-445-0.3-445-0.5 0-0.3 199.2-0.6 445-0.6 245.8 0 445 0.3 445 0.6z"/>
			</g>
		</g>
	</g>
	<g id="Device">
		<g id="&lt;Group&gt;">
			<g id="&lt;Group&gt;">
				<g id="&lt;Group&gt;">
					<g id="&lt;Group&gt;">
						<g id="&lt;Group&gt;">
							<g id="&lt;Group&gt;">
								<g id="&lt;Group&gt;">
									<g id="&lt;Group&gt;">
										<g id="&lt;Group&gt;">
											<g id="&lt;Group&gt;">
												<g id="&lt;Group&gt;">
													<g id="&lt;Group&gt;">
														<g id="&lt;Group&gt;">
															<g id="&lt;Group&gt;">
																<g id="&lt;Group&gt;">
																	<g id="&lt;Group&gt;">
																		<g id="&lt;Group&gt;">
																			<g id="&lt;Group&gt;">
																				<g id="&lt;Group&gt;">
																					<g id="&lt;Group&gt;">
																						<g id="&lt;Group&gt;">
																							<g id="&lt;Group&gt;">
																								<g id="&lt;Group&gt;">
																									<path id="&lt;Path&gt;" class="s4" d="m701.5 742.9h-403c-10.9 0-19.8-9.1-19.8-20.4v-616.1c0-11.3 8.9-20.4 19.8-20.4h403c10.9 0 19.8 9.1 19.8 20.4v616.1c0 11.3-8.9 20.4-19.8 20.4z"/>
																								</g>
																							</g>
																						</g>
																					</g>
																				</g>
																			</g>
																		</g>
																	</g>
																</g>
															</g>
														</g>
													</g>
												</g>
												<g id="&lt;Group&gt;">
													<g id="&lt;Group&gt;">
														<g id="&lt;Group&gt;">
															<g id="&lt;Group&gt;">
																<g id="&lt;Group&gt;">
																	<g id="&lt;Group&gt;">
																		<g id="&lt;Group&gt;">
																			<g id="&lt;Group&gt;">
																				<g id="&lt;Group&gt;">
																					<g id="&lt;Group&gt;">
																						<g id="&lt;Group&gt;">
																							<g id="&lt;Group&gt;">
																								<path id="&lt;Path&gt;" class="s5" d="m507.7 713c0 10.2-8.4 18.5-18.8 18.5-10.3 0-18.7-8.3-18.7-18.5 0-10.1 8.4-18.4 18.7-18.4 10.4 0 18.8 8.3 18.8 18.4z"/>
																							</g>
																						</g>
																					</g>
																				</g>
																			</g>
																		</g>
																	</g>
																</g>
															</g>
														</g>
													</g>
												</g>
											</g>
										</g>
									</g>
								</g>
							</g>
							<g id="&lt;Group&gt;">
								<g id="&lt;Group&gt;">
									<g id="&lt;Group&gt;">
										<g id="&lt;Group&gt;">
											<path id="&lt;Path&gt;" class="s5" d="m545.3 120.7h-90.3c-3.5 0-6.3-2.9-6.3-6.5 0-3.6 2.8-6.5 6.3-6.5h90.3c3.5 0 6.3 2.9 6.3 6.5 0 3.6-2.8 6.5-6.3 6.5z"/>
										</g>
									</g>
								</g>
							</g>
						</g>
					</g>
					<g id="&lt;Group&gt;">
						<g id="&lt;Group&gt;">
							<g id="&lt;Group&gt;">
								<g id="&lt;Group&gt;">
									<g id="&lt;Group&gt;">
										<g id="&lt;Group&gt;">
											<g id="&lt;Group&gt;">
												<g id="&lt;Group&gt;">
													<g id="&lt;Group&gt;">
														<g id="&lt;Group&gt;">
															<g id="&lt;Group&gt;">
																<g id="&lt;Group&gt;">
																	<g id="&lt;Group&gt;">
																		<path id="&lt;Path&gt;" class="s2" d="m706.9 681.5h-414.6v-548.6h414.6z"/>
																	</g>
																</g>
															</g>
														</g>
													</g>
												</g>
											</g>
										</g>
									</g>
								</g>
							</g>
						</g>
					</g>
				</g>
			</g>
			<g id="&lt;Group&gt;">
				<path id="&lt;Path&gt;" class="s3" d="m707.3 681.5h-414.6v-548.6h414.6z"/>
			</g>
			<g id="&lt;Group&gt;">
				<path id="&lt;Path&gt;" class="s2" d="m652.8 636.4h-305.6c-10.9 0-19.7-8.8-19.7-19.7v-419.4c0-10.9 8.8-19.7 19.7-19.7h305.6c10.9 0 19.7 8.8 19.7 19.7v419.4c0 10.9-8.8 19.7-19.7 19.7z"/>
			</g>
			<g id="&lt;Group&gt;">
				<g id="&lt;Group&gt;">
					<path id="&lt;Compound Path&gt;" class="s6" d="m439.3 236.8l2-4.4c1.8 1.2 4.5 2.1 6.9 2.1 2.4 0 3.4-0.7 3.4-1.7 0-3.3-11.9-0.9-11.9-8.7 0-3.8 3-6.8 9.3-6.8 2.7 0 5.5 0.6 7.6 1.8l-1.9 4.4c-2-1.1-3.9-1.6-5.8-1.6-2.4 0-3.3 0.8-3.3 1.9 0 3.2 11.8 0.8 11.8 8.5 0 3.7-3 6.8-9.2 6.8-3.5 0-6.9-0.9-8.9-2.3z"/>
					<path id="&lt;Compound Path&gt;" class="s6" d="m459.3 217.6c0-1.7 1.3-3 3.4-3 2.1 0 3.5 1.2 3.5 2.9 0 1.8-1.4 3.1-3.5 3.1-2.1 0-3.4-1.3-3.4-3zm0.6 4.8h5.7v16.3h-5.7z"/>
					<path id="&lt;Compound Path&gt;" fill-rule="evenodd" class="s6" d="m486.7 222.4v13.3c0 6.1-3.4 9-9.5 9-3.1 0-6.1-0.7-8-2.1l2-4c1.4 1.1 3.6 1.8 5.5 1.8 3.1 0 4.3-1.4 4.3-3.9v-0.6c-1.1 1.3-2.7 1.9-4.8 1.9-4.3 0-7.9-3-7.9-7.8 0-4.8 3.6-7.8 7.9-7.8 2.3 0 4 0.7 5.1 2.2v-2zm-5.6 7.6c0-2-1.5-3.3-3.6-3.3-2 0-3.5 1.3-3.5 3.3 0 2 1.5 3.3 3.5 3.3 2.1 0 3.6-1.3 3.6-3.3z"/>
					<path id="&lt;Compound Path&gt;" class="s6" d="m507.7 229.4v9.3h-5.7v-8.4c0-2.3-1-3.3-2.7-3.3-1.8 0-3.2 1.1-3.2 3.8v7.9h-5.7v-16.3h5.4v1.8c1.3-1.3 3.1-2 5.2-2 3.8 0 6.7 2.2 6.7 7.2z"/>
					<path id="&lt;Compound Path&gt;" class="s6" d="m537 222.4v16.3h-5.4v-1.8c-1.2 1.4-3 2-4.8 2-4 0-6.9-2.2-6.9-7.4v-9.1h5.7v8.2c0 2.5 1 3.5 2.7 3.5 1.6 0 3-1.1 3-3.8v-7.9z"/>
					<path id="&lt;Compound Path&gt;" fill-rule="evenodd" class="s6" d="m558.8 230.6c0 5.1-3.5 8.3-7.9 8.3q-2.9 0-4.6-1.7v7.3h-5.6v-22.1h5.4v1.7c1.1-1.3 2.6-1.9 4.8-1.9 4.4 0 7.9 3.2 7.9 8.4zm-5.7 0c0-2.5-1.5-3.9-3.4-3.9-1.9 0-3.4 1.4-3.4 3.9 0 2.4 1.5 3.8 3.4 3.8 1.9 0 3.4-1.4 3.4-3.8z"/>
				</g>
				<g id="&lt;Group&gt;">
					<path id="&lt;Compound Path&gt;" class="s4" d="m366.9 355.8v2.2h3.9v1.6h-3.9v3h-1.9v-8.4h6.3v1.6z"/>
					<path id="&lt;Compound Path&gt;" class="s4" d="m378.8 356.2v6.4h-1.7v-0.8c-0.5 0.6-1.3 0.9-2 0.9-1.7 0-2.8-0.9-2.8-2.9v-3.6h1.9v3.3c0 1.1 0.4 1.6 1.3 1.6 0.8 0 1.5-0.6 1.5-1.8v-3.1z"/>
					<path id="&lt;Compound Path&gt;" class="s4" d="m380.6 353.7h1.8v8.9h-1.8z"/>
					<path id="&lt;Compound Path&gt;" class="s4" d="m384.2 353.7h1.9v8.9h-1.9z"/>
					<path id="&lt;Compound Path&gt;" class="s4" d="m399 354.2v8.4h-1.6l-4.2-5.1v5.1h-1.9v-8.4h1.6l4.2 5.1v-5.1z"/>
					<path id="&lt;Compound Path&gt;" fill-rule="evenodd" class="s4" d="m406.6 358.9v3.7h-1.8v-0.8q-0.5 0.9-1.9 0.9c-1.5 0-2.4-0.8-2.4-1.9 0-1.2 0.8-2 2.7-2h1.5c0-0.8-0.5-1.3-1.5-1.3-0.6 0-1.4 0.3-1.8 0.6l-0.7-1.3c0.7-0.5 1.8-0.7 2.8-0.7 2 0 3.1 0.9 3.1 2.8zm-1.9 1.7v-0.7h-1.3c-0.8 0-1.1 0.3-1.1 0.8 0 0.4 0.4 0.7 1 0.7 0.7 0 1.2-0.2 1.4-0.8z"/>
					<path id="&lt;Compound Path&gt;" class="s4" d="m419.2 358.9v3.7h-1.9v-3.4c0-1-0.4-1.5-1.2-1.5-0.8 0-1.4 0.5-1.4 1.7v3.2h-1.9v-3.4c0-1-0.4-1.5-1.2-1.5-0.8 0-1.4 0.5-1.4 1.7v3.2h-1.9v-6.4h1.8v0.7c0.5-0.6 1.2-0.8 2-0.8 0.9 0 1.7 0.3 2.1 1 0.5-0.6 1.4-1 2.4-1 1.5 0 2.6 0.8 2.6 2.8z"/>
					<path id="&lt;Compound Path&gt;" fill-rule="evenodd" class="s4" d="m427.2 359.9h-4.8c0.1 0.8 0.8 1.3 1.8 1.3 0.7 0 1.2-0.2 1.6-0.6l1 1.1q-0.9 1-2.6 1c-2.3 0-3.7-1.4-3.7-3.3 0-1.9 1.4-3.3 3.4-3.3 1.9 0 3.4 1.2 3.4 3.3 0 0.2-0.1 0.4-0.1 0.5zm-4.9-1.1h3.2c-0.1-0.8-0.7-1.3-1.6-1.3-0.8 0-1.4 0.5-1.6 1.3z"/>
				</g>
				<g id="&lt;Group&gt;">
					<path id="&lt;Compound Path&gt;" class="s4" d="m371.5 416.6v1.5h-6.5v-8.4h6.3v1.6h-4.4v1.8h3.9v1.5h-3.9v2z"/>
					<path id="&lt;Compound Path&gt;" class="s4" d="m383.8 414.4v3.7h-1.9v-3.4c0-1-0.5-1.5-1.2-1.5-0.9 0-1.4 0.6-1.4 1.7v3.2h-1.9v-3.4c0-1-0.5-1.5-1.2-1.5-0.9 0-1.4 0.6-1.4 1.7v3.2h-1.9v-6.4h1.8v0.7c0.4-0.5 1.2-0.8 2-0.8 0.9 0 1.7 0.3 2.1 1 0.5-0.6 1.4-1 2.3-1 1.6 0 2.7 0.9 2.7 2.8z"/>
					<path id="&lt;Compound Path&gt;" fill-rule="evenodd" class="s4" d="m391.2 414.5v3.6h-1.8v-0.8q-0.5 0.9-1.9 0.9c-1.6 0-2.5-0.8-2.5-1.9 0-1.2 0.9-1.9 2.8-1.9h1.5c0-0.9-0.5-1.3-1.5-1.3-0.7 0-1.4 0.2-1.8 0.6l-0.7-1.3c0.7-0.5 1.7-0.8 2.8-0.8 1.9 0 3.1 0.9 3.1 2.9zm-1.9 1.6v-0.7h-1.3c-0.9 0-1.1 0.4-1.1 0.8 0 0.5 0.4 0.8 1 0.8 0.7 0 1.2-0.3 1.4-0.9z"/>
					<path id="&lt;Compound Path&gt;" class="s4" d="m392.6 409.7c0-0.5 0.5-1 1.2-1 0.7 0 1.2 0.4 1.2 1 0 0.6-0.5 1.1-1.2 1.1-0.7 0-1.2-0.5-1.2-1.1zm0.3 2h1.8v6.4h-1.8z"/>
					<path id="&lt;Compound Path&gt;" class="s4" d="m396.5 409.2h1.9v8.9h-1.9z"/>
					<path id="&lt;Compound Path&gt;" fill-rule="evenodd" class="s4" d="m409.2 416.3h-3.9l-0.8 1.8h-2l3.8-8.4h1.9l3.7 8.4h-2zm-0.6-1.4l-1.3-3.2-1.4 3.2z"/>
					<path id="&lt;Compound Path&gt;" fill-rule="evenodd" class="s4" d="m419.2 409.2v8.9h-1.8v-0.7q-0.7 0.8-2 0.8c-1.8 0-3.2-1.3-3.2-3.3 0-2 1.4-3.3 3.2-3.3 0.8 0 1.5 0.2 1.9 0.8v-3.2zm-1.8 5.7c0-1.1-0.7-1.8-1.7-1.8-0.9 0-1.6 0.7-1.6 1.8 0 1.1 0.7 1.8 1.6 1.8 1 0 1.7-0.7 1.7-1.8z"/>
					<path id="&lt;Compound Path&gt;" fill-rule="evenodd" class="s4" d="m427.5 409.2v8.9h-1.8v-0.7q-0.7 0.8-2 0.8c-1.8 0-3.2-1.3-3.2-3.3 0-2 1.4-3.3 3.2-3.3 0.8 0 1.5 0.2 1.9 0.8v-3.2zm-1.8 5.7c0-1.1-0.7-1.8-1.6-1.8-1 0-1.7 0.7-1.7 1.8 0 1.1 0.7 1.8 1.7 1.8 0.9 0 1.6-0.7 1.6-1.8z"/>
					<path id="&lt;Compound Path&gt;" class="s4" d="m433.2 411.6v1.7q-0.2 0-0.4 0c-1 0-1.7 0.6-1.7 1.8v3h-1.9v-6.4h1.8v0.8c0.5-0.6 1.2-0.9 2.2-0.9z"/>
					<path id="&lt;Compound Path&gt;" fill-rule="evenodd" class="s4" d="m440.6 415.4h-4.9c0.2 0.8 0.9 1.3 1.8 1.3 0.7 0 1.2-0.2 1.7-0.6l1 1.1q-0.9 1-2.7 1c-2.2 0-3.7-1.4-3.7-3.3 0-1.9 1.5-3.3 3.5-3.3 1.9 0 3.3 1.3 3.3 3.3 0 0.2 0 0.4 0 0.5zm-4.9-1h3.2c-0.2-0.9-0.8-1.4-1.6-1.4-0.9 0-1.5 0.5-1.6 1.4z"/>
					<path id="&lt;Compound Path&gt;" class="s4" d="m441.2 417.5l0.7-1.3c0.5 0.4 1.4 0.6 2.2 0.6 0.9 0 1.2-0.2 1.2-0.6 0-1-3.9 0.1-3.9-2.5 0-1.2 1.1-2.1 3-2.1 0.9 0 1.9 0.2 2.5 0.6l-0.7 1.3c-0.6-0.4-1.2-0.5-1.8-0.5-0.9 0-1.2 0.3-1.2 0.6 0 1.1 3.9 0 3.9 2.6 0 1.2-1.1 2-3.1 2-1.1 0-2.2-0.3-2.8-0.7z"/>
					<path id="&lt;Compound Path&gt;" class="s4" d="m447.6 417.5l0.6-1.3c0.6 0.4 1.5 0.6 2.3 0.6 0.8 0 1.2-0.2 1.2-0.6 0-1-3.9 0.1-3.9-2.5 0-1.2 1.1-2.1 3-2.1 0.8 0 1.8 0.2 2.4 0.6l-0.6 1.3c-0.6-0.4-1.3-0.5-1.8-0.5-0.9 0-1.2 0.3-1.2 0.6 0 1.1 3.9 0 3.9 2.6 0 1.2-1.2 2-3.1 2-1.1 0-2.2-0.3-2.8-0.7z"/>
				</g>
				<g id="&lt;Group&gt;">
					<path id="&lt;Compound Path&gt;" fill-rule="evenodd" class="s4" d="m373.5 466.4c0 1.9-1.4 3-3.6 3h-1.7v2.3h-2v-8.4h3.7c2.2 0 3.6 1.2 3.6 3.1zm-2 0c0-0.9-0.6-1.5-1.7-1.5h-1.6v2.9h1.6c1.1 0 1.7-0.5 1.7-1.4z"/>
					<path id="&lt;Compound Path&gt;" fill-rule="evenodd" class="s4" d="m380.4 468.1v3.6h-1.7v-0.8q-0.6 0.9-2 0.9c-1.5 0-2.4-0.8-2.4-1.9 0-1.2 0.8-2 2.8-2h1.4c0-0.8-0.4-1.2-1.4-1.2-0.7 0-1.4 0.2-1.9 0.6l-0.7-1.3c0.7-0.5 1.8-0.8 2.8-0.8 2 0 3.1 0.9 3.1 2.9zm-1.9 1.6v-0.7h-1.2c-0.9 0-1.2 0.4-1.2 0.8 0 0.5 0.4 0.8 1.1 0.8 0.6 0 1.1-0.3 1.3-0.9z"/>
					<path id="&lt;Compound Path&gt;" class="s4" d="m381.5 471.1l0.6-1.3c0.6 0.4 1.5 0.6 2.2 0.6 0.9 0 1.2-0.2 1.2-0.6 0-1-3.9 0.1-3.9-2.5 0-1.2 1.1-2.1 3-2.1 0.9 0 1.9 0.2 2.5 0.6l-0.6 1.3c-0.7-0.4-1.3-0.5-1.9-0.5-0.8 0-1.2 0.3-1.2 0.6 0 1.1 3.9 0 3.9 2.6 0 1.2-1.1 2-3 2-1.1 0-2.2-0.3-2.8-0.7z"/>
					<path id="&lt;Compound Path&gt;" class="s4" d="m387.9 471.1l0.6-1.3c0.6 0.4 1.4 0.6 2.2 0.6 0.9 0 1.2-0.2 1.2-0.6 0-1-3.9 0.1-3.9-2.5 0-1.2 1.1-2.1 3-2.1 0.9 0 1.9 0.2 2.5 0.6l-0.6 1.3c-0.7-0.4-1.3-0.5-1.9-0.5-0.8 0-1.2 0.3-1.2 0.6 0 1.1 3.9 0 3.9 2.6 0 1.2-1.1 2-3.1 2-1 0-2.1-0.3-2.7-0.7z"/>
					<path id="&lt;Compound Path&gt;" class="s4" d="m405.1 465.3l-2.3 6.4h-1.8l-1.5-4-1.5 4h-1.8l-2.3-6.4h1.7l1.6 4.4 1.5-4.4h1.6l1.6 4.4 1.5-4.4z"/>
					<path id="&lt;Compound Path&gt;" fill-rule="evenodd" class="s4" d="m405.3 468.5c0-1.9 1.5-3.3 3.6-3.3 2 0 3.5 1.4 3.5 3.3 0 2-1.5 3.3-3.5 3.3-2.1 0-3.6-1.3-3.6-3.3zm5.2 0c0-1.1-0.7-1.8-1.6-1.8-1 0-1.7 0.7-1.7 1.8 0 1.1 0.7 1.8 1.7 1.8 0.9 0 1.6-0.7 1.6-1.8z"/>
					<path id="&lt;Compound Path&gt;" class="s4" d="m417.7 465.2v1.7q-0.3 0-0.5 0c-1 0-1.7 0.6-1.7 1.8v3h-1.8v-6.4h1.7v0.8c0.5-0.6 1.3-0.9 2.3-0.9z"/>
					<path id="&lt;Compound Path&gt;" fill-rule="evenodd" class="s4" d="m425.3 462.8v8.9h-1.8v-0.7q-0.7 0.8-2 0.8c-1.8 0-3.2-1.3-3.2-3.3 0-2 1.4-3.3 3.2-3.3 0.8 0 1.5 0.2 1.9 0.8v-3.2zm-1.8 5.7c0-1.1-0.7-1.8-1.7-1.8-0.9 0-1.6 0.7-1.6 1.8 0 1.1 0.7 1.8 1.6 1.8 1 0 1.7-0.7 1.7-1.8z"/>
				</g>
				<g id="&lt;Group&gt;">
					<g id="&lt;Group&gt;">
						<path id="&lt;Path&gt;" class="s6" d="m587 606.3h-159.9c-5.3 0-9.5-4.3-9.5-9.5v-17.5c0-5.3 4.2-9.6 9.5-9.6h159.9c5.2 0 9.5 4.3 9.5 9.6v17.5c0 5.2-4.3 9.5-9.5 9.5z"/>
					</g>
					<g id="&lt;Group&gt;">
						<path id="&lt;Compound Path&gt;" class="s2" d="m449.6 587.2c0-3 2.3-5.1 5.4-5.1 1.8 0 3.3 0.6 4.2 1.8l-1.7 1.6c-0.6-0.7-1.4-1.1-2.3-1.1-1.6 0-2.8 1.1-2.8 2.8 0 1.7 1.2 2.8 2.8 2.8 0.9 0 1.7-0.4 2.3-1.2l1.7 1.6c-0.9 1.2-2.4 1.9-4.2 1.9-3.1 0-5.4-2.1-5.4-5.1z"/>
						<path id="&lt;Compound Path&gt;" class="s2" d="m465.4 584.4v2.4c-0.2-0.1-0.4-0.1-0.6-0.1-1.1 0-1.8 0.6-1.8 1.9v3.5h-2.7v-7.6h2.6v0.9c0.5-0.7 1.4-1 2.5-1z"/>
						<path id="&lt;Compound Path&gt;" fill-rule="evenodd" class="s2" d="m474.2 589h-5.6c0.3 0.7 0.9 1.2 1.9 1.2 0.8 0 1.2-0.2 1.8-0.7l1.4 1.5q-1.1 1.2-3.3 1.2c-2.7 0-4.4-1.7-4.4-3.9 0-2.3 1.8-3.9 4.1-3.9 2.3 0 4.1 1.4 4.1 3.9 0 0.2 0 0.5 0 0.7zm-5.6-1.4h3.1c-0.1-0.8-0.7-1.3-1.5-1.3-0.9 0-1.4 0.5-1.6 1.3z"/>
						<path id="&lt;Compound Path&gt;" fill-rule="evenodd" class="s2" d="m482.3 587.9v4.2h-2.4v-1q-0.6 1.1-2.3 1.1c-1.8 0-2.8-1-2.8-2.3 0-1.4 1-2.3 3.4-2.3h1.5c-0.1-0.8-0.6-1.2-1.6-1.2-0.8 0-1.6 0.2-2.1 0.7l-0.9-1.9c0.9-0.5 2.2-0.8 3.4-0.8 2.4 0 3.8 1.1 3.8 3.5zm-2.6 1.7v-0.6h-1.2c-0.8 0-1.1 0.3-1.1 0.8 0 0.4 0.3 0.7 1 0.7 0.6 0 1.1-0.3 1.3-0.9z"/>
						<path id="&lt;Compound Path&gt;" class="s2" d="m489.3 591.8c-0.5 0.3-1.2 0.4-1.9 0.4-1.9 0-3.1-0.9-3.1-2.9v-2.5h-1.1v-2h1.1v-2h2.7v2h1.7v2h-1.7v2.5c0 0.5 0.3 0.9 0.8 0.9 0.3 0 0.6-0.1 0.8-0.3z"/>
						<path id="&lt;Compound Path&gt;" fill-rule="evenodd" class="s2" d="m497.8 589h-5.5c0.2 0.7 0.8 1.2 1.8 1.2 0.8 0 1.2-0.2 1.8-0.7l1.4 1.5q-1.1 1.2-3.3 1.2c-2.7 0-4.4-1.7-4.4-3.9 0-2.3 1.8-3.9 4.2-3.9 2.2 0 4 1.4 4 3.9 0 0.2 0 0.5 0 0.7zm-5.6-1.4h3.1c-0.1-0.8-0.7-1.3-1.5-1.3-0.9 0-1.4 0.5-1.6 1.3z"/>
						<path id="&lt;Compound Path&gt;" fill-rule="evenodd" class="s2" d="m509.8 590.2h-4.1l-0.8 1.9h-2.8l4.3-9.8h2.7l4.4 9.8h-2.9zm-0.8-2.1l-1.3-3.1-1.3 3.1z"/>
						<path id="&lt;Compound Path&gt;" class="s2" d="m513.6 588.3c0-2.3 1.8-3.9 4.3-3.9 1.7 0 3.1 0.7 3.6 2.1l-2.1 1c-0.3-0.7-0.9-1-1.5-1-0.9 0-1.6 0.6-1.6 1.8 0 1.2 0.7 1.8 1.6 1.8 0.6 0 1.2-0.3 1.5-1l2.1 1c-0.5 1.3-1.9 2.1-3.6 2.1-2.5 0-4.3-1.6-4.3-3.9z"/>
						<path id="&lt;Compound Path&gt;" class="s2" d="m521.9 588.3c0-2.3 1.8-3.9 4.4-3.9 1.7 0 3 0.7 3.5 2.1l-2 1c-0.4-0.7-0.9-1-1.5-1-1 0-1.7 0.6-1.7 1.8 0 1.2 0.7 1.8 1.7 1.8 0.6 0 1.1-0.3 1.5-1l2 1c-0.5 1.3-1.8 2.1-3.5 2.1-2.6 0-4.4-1.6-4.4-3.9z"/>
						<path id="&lt;Compound Path&gt;" fill-rule="evenodd" class="s2" d="m530.3 588.3c0-2.3 1.8-3.9 4.3-3.9 2.5 0 4.3 1.6 4.3 3.9 0 2.3-1.8 3.9-4.3 3.9-2.5 0-4.3-1.6-4.3-3.9zm5.9 0c0-1.2-0.7-1.8-1.6-1.8-0.9 0-1.6 0.6-1.6 1.8 0 1.1 0.7 1.8 1.6 1.8 0.9 0 1.6-0.7 1.6-1.8z"/>
						<path id="&lt;Compound Path&gt;" class="s2" d="m548.1 584.5v7.6h-2.6v-0.8c-0.5 0.6-1.4 0.9-2.2 0.9-1.9 0-3.2-1.1-3.2-3.5v-4.2h2.6v3.8c0 1.2 0.5 1.6 1.3 1.6 0.8 0 1.4-0.5 1.4-1.8v-3.6z"/>
						<path id="&lt;Compound Path&gt;" class="s2" d="m557.9 587.7v4.4h-2.7v-3.9c0-1.1-0.5-1.6-1.2-1.6-0.9 0-1.6 0.6-1.6 1.8v3.7h-2.6v-7.6h2.5v0.8c0.6-0.6 1.5-0.9 2.4-0.9 1.8 0 3.2 1 3.2 3.3z"/>
						<path id="&lt;Compound Path&gt;" class="s2" d="m564.8 591.8c-0.5 0.3-1.2 0.4-1.9 0.4-1.9 0-3.1-0.9-3.1-2.9v-2.5h-1.1v-2h1.1v-2h2.7v2h1.7v2h-1.7v2.5c0 0.5 0.3 0.9 0.8 0.9 0.3 0 0.6-0.1 0.8-0.3z"/>
					</g>
				</g>
				<g id="&lt;Group&gt;">
					<path id="&lt;Compound Path&gt;" class="s4" d="m507.5 358.9v-4.7h1.9v4.6c0 1.6 0.7 2.3 1.9 2.3 1.2 0 1.9-0.7 1.9-2.3v-4.6h1.9v4.7c0 2.5-1.4 3.9-3.8 3.9-2.4 0-3.8-1.4-3.8-3.9z"/>
					<path id="&lt;Compound Path&gt;" class="s4" d="m516.3 362l0.6-1.3c0.6 0.3 1.4 0.6 2.2 0.6 0.9 0 1.2-0.2 1.2-0.6 0-1.1-3.9 0-3.9-2.6 0-1.2 1.1-2 3-2 0.9 0 1.9 0.2 2.5 0.5l-0.6 1.4c-0.7-0.4-1.3-0.5-1.9-0.5-0.8 0-1.2 0.2-1.2 0.6 0 1.1 3.9 0 3.9 2.6 0 1.2-1.1 2-3 2-1.1 0-2.2-0.3-2.8-0.7z"/>
					<path id="&lt;Compound Path&gt;" fill-rule="evenodd" class="s4" d="m529.6 359.9h-4.9c0.2 0.8 0.8 1.3 1.8 1.3 0.7 0 1.2-0.2 1.6-0.6l1 1.1q-0.9 1-2.6 1c-2.3 0-3.7-1.4-3.7-3.3 0-1.9 1.5-3.3 3.4-3.3 1.9 0 3.4 1.2 3.4 3.3 0 0.2 0 0.4 0 0.5zm-5-1.1h3.2c-0.1-0.8-0.7-1.3-1.6-1.3-0.8 0-1.4 0.5-1.6 1.3z"/>
					<path id="&lt;Compound Path&gt;" class="s4" d="m534.8 356.1v1.7c-0.1 0-0.2 0-0.4 0-1 0-1.7 0.5-1.7 1.8v3h-1.9v-6.4h1.8v0.8c0.5-0.6 1.2-0.9 2.2-0.9z"/>
					<path id="&lt;Compound Path&gt;" class="s4" d="m542.6 358.9v3.7h-1.9v-3.4c0-1-0.5-1.5-1.3-1.5-0.9 0-1.6 0.5-1.6 1.7v3.2h-1.8v-6.4h1.7v0.7c0.6-0.5 1.3-0.8 2.2-0.8 1.5 0 2.7 0.8 2.7 2.8z"/>
					<path id="&lt;Compound Path&gt;" fill-rule="evenodd" class="s4" d="m550 358.9v3.7h-1.8v-0.8q-0.5 0.9-2 0.9c-1.5 0-2.4-0.8-2.4-2 0-1.1 0.8-1.9 2.8-1.9h1.5c0-0.8-0.5-1.3-1.5-1.3-0.7 0-1.4 0.3-1.9 0.6l-0.6-1.3c0.7-0.5 1.7-0.7 2.8-0.7 1.9 0 3.1 0.9 3.1 2.8zm-1.9 1.7v-0.7h-1.3c-0.9 0-1.1 0.3-1.1 0.8 0 0.4 0.4 0.7 1 0.7 0.6 0 1.2-0.2 1.4-0.8z"/>
					<path id="&lt;Compound Path&gt;" class="s4" d="m562.6 358.9v3.7h-1.9v-3.4c0-1-0.5-1.5-1.2-1.5-0.9 0-1.5 0.5-1.5 1.7v3.2h-1.8v-3.4c0-1-0.5-1.5-1.3-1.5-0.8 0-1.4 0.5-1.4 1.7v3.2h-1.8v-6.4h1.7v0.7c0.5-0.6 1.2-0.8 2.1-0.8 0.9 0 1.6 0.3 2.1 1 0.5-0.6 1.4-1 2.3-1 1.6 0 2.7 0.8 2.7 2.8z"/>
					<path id="&lt;Compound Path&gt;" fill-rule="evenodd" class="s4" d="m570.6 359.9h-4.9c0.2 0.8 0.9 1.3 1.9 1.3 0.7 0 1.1-0.2 1.6-0.6l1 1.1q-0.9 1-2.7 1c-2.2 0-3.7-1.4-3.7-3.3 0-1.9 1.5-3.3 3.5-3.3 1.9 0 3.3 1.2 3.3 3.3 0 0.2 0 0.4 0 0.5zm-4.9-1.1h3.2c-0.2-0.8-0.8-1.3-1.6-1.3-0.9 0-1.5 0.5-1.6 1.3z"/>
				</g>
				<g id="&lt;Group&gt;">
					<g id="&lt;Group&gt;">
						<path id="&lt;Path&gt;" class="s4" d="m366.2 332.4q58.5 0 117 0c0.3 0 0.3 0.5 0 0.5q-58.5 0-117 0c-0.3 0-0.3-0.5 0-0.5z"/>
					</g>
				</g>
				<g id="&lt;Group&gt;">
					<g id="&lt;Group&gt;">
						<path id="&lt;Path&gt;" class="s4" d="m517.9 332.4q58.5 0 117 0c0.3 0 0.3 0.5 0 0.5q-58.5 0-117 0c-0.3 0-0.3-0.5 0-0.5z"/>
					</g>
				</g>
				<g id="&lt;Group&gt;">
					<path id="&lt;Compound Path&gt;" fill-rule="evenodd" class="s4" d="m492.9 331.6c0-2.3 1.8-4 4.2-4 2.4 0 4.2 1.7 4.2 4 0 2.3-1.8 4-4.2 4-2.4 0-4.2-1.7-4.2-4zm7.2 0c0-1.7-1.3-3-3-3-1.8 0-3.1 1.3-3.1 3 0 1.7 1.3 3 3.1 3 1.7 0 3-1.3 3-3z"/>
					<path id="&lt;Compound Path&gt;" class="s4" d="m506 329.5v1.1q-0.1-0.1-0.2-0.1c-1.2 0-1.9 0.8-1.9 2.1v2.9h-1.1v-5.9h1v1q0.6-1.1 2.2-1.1z"/>
				</g>
				<g id="&lt;Group&gt;">
					<path id="&lt;Path&gt;" class="s3" d="m487.2 397.3h-117c-3.4 0-6.2-2.8-6.2-6.3v-12.8c0-3.5 2.8-6.3 6.2-6.3h117c3.4 0 6.2 2.8 6.2 6.3v12.8c0 3.5-2.8 6.3-6.2 6.3z"/>
				</g>
				<g id="&lt;Group&gt;">
					<path id="&lt;Path&gt;" class="s3" d="m627.4 451.1h-257.2c-3.4 0-6.2-2.8-6.2-6.3v-12.8c0-3.4 2.8-6.3 6.2-6.3h257.2c3.5 0 6.3 2.9 6.3 6.3v12.8c0 3.5-2.8 6.3-6.3 6.3z"/>
				</g>
				<g id="&lt;Group&gt;">
					<path id="&lt;Path&gt;" class="s3" d="m627.4 505.1h-257.2c-3.4 0-6.2-2.8-6.2-6.3v-12.8c0-3.5 2.8-6.3 6.2-6.3h257.2c3.5 0 6.3 2.8 6.3 6.3v12.8c0 3.5-2.8 6.3-6.3 6.3z"/>
				</g>
				<g id="&lt;Group&gt;">
					<path id="&lt;Path&gt;" class="s3" d="m627.4 397.3h-114.6c-3.4 0-6.2-2.8-6.2-6.3v-12.8c0-3.5 2.8-6.3 6.2-6.3h114.6c3.5 0 6.3 2.8 6.3 6.3v12.8c0 3.5-2.8 6.3-6.3 6.3z"/>
				</g>
				<g id="&lt;Group&gt;">
					<path id="&lt;Path&gt;" class="s6" d="m375.7 530.2h-6.6c-1 0-1.9-0.9-1.9-2v-6.6c0-1.1 0.9-2 1.9-2h6.6c1.1 0 2 0.9 2 2v6.6c0 1.1-0.9 2-2 2z"/>
				</g>
				<g id="&lt;Group&gt;">
					<path id="&lt;Path&gt;" class="s0" d="m621.6 529.5h-232.4c-2.2 0-3.9-1.8-3.9-3.9 0-2.2 1.7-3.9 3.9-3.9h232.4c2.2 0 3.9 1.7 3.9 3.9 0 2.1-1.7 3.9-3.9 3.9z"/>
				</g>
				<g id="&lt;Group&gt;">
					<path id="&lt;Path&gt;" class="s0" d="m427.4 544.1h-37c-2.2 0-3.9-1.8-3.9-3.9 0-2.2 1.7-3.9 3.9-3.9h37c2.2 0 3.9 1.7 3.9 3.9 0 2.1-1.7 3.9-3.9 3.9z"/>
				</g>
				<g id="&lt;Group&gt;">
					<g id="&lt;Group&gt;">
						<path id="&lt;Path&gt;" class="s3" d="m626.1 308h-252.2c-4.8 0-8.7-3.9-8.7-8.7v-15.8c0-4.8 3.9-8.7 8.7-8.7h252.2c4.8 0 8.7 3.9 8.7 8.7v15.8c0 4.8-3.9 8.7-8.7 8.7z"/>
					</g>
					<g id="&lt;Group&gt;">
						<g id="&lt;Group&gt;">
							<path id="&lt;Compound Path&gt;" class="s4" d="m449 294l0.4-1c0.6 0.6 1.7 1 2.8 1 1.4 0 2.1-0.6 2.1-1.3 0-2-5.1-0.8-5.1-3.9 0-1.3 1-2.4 3.2-2.4 1 0 2 0.3 2.7 0.8l-0.4 0.9c-0.7-0.4-1.6-0.6-2.3-0.6-1.4 0-2 0.6-2 1.3 0 2 5 0.7 5 3.8 0 1.3-1 2.4-3.2 2.4-1.3 0-2.5-0.4-3.2-1z"/>
							<path id="&lt;Compound Path&gt;" class="s4" d="m456.8 286.6c0-0.4 0.4-0.8 0.8-0.8 0.5 0 0.8 0.4 0.8 0.8 0 0.4-0.3 0.7-0.8 0.7-0.4 0-0.8-0.3-0.8-0.7zm0.2 2h1.2v6.3h-1.2z"/>
							<path id="&lt;Compound Path&gt;" fill-rule="evenodd" class="s4" d="m466.5 288.6v5.5c0 2.2-1.2 3.2-3.3 3.2-1.2 0-2.4-0.3-3.1-0.9l0.6-0.9c0.6 0.5 1.5 0.8 2.4 0.8 1.5 0 2.2-0.7 2.2-2.1v-0.5c-0.5 0.6-1.4 1-2.3 1-1.8 0-3.2-1.3-3.2-3.1 0-1.9 1.4-3.1 3.2-3.1 1 0 1.8 0.4 2.4 1v-0.9zm-1.2 3c0-1.3-0.9-2.1-2.1-2.1-1.3 0-2.2 0.8-2.2 2.1 0 1.2 0.9 2.1 2.2 2.1 1.2 0 2.1-0.9 2.1-2.1z"/>
							<path id="&lt;Compound Path&gt;" class="s4" d="m474.7 291.3v3.6h-1.2v-3.5c0-1.3-0.6-1.9-1.7-1.9-1.2 0-2 0.8-2 2.1v3.3h-1.1v-6.3h1.1v0.9c0.4-0.6 1.2-1 2.3-1 1.5 0 2.6 0.9 2.6 2.8z"/>
							<path id="&lt;Compound Path&gt;" class="s4" d="m486 288.6v6.3h-1.1v-0.9c-0.5 0.6-1.3 1-2.2 1-1.6 0-2.7-0.9-2.7-2.8v-3.6h1.1v3.5c0 1.2 0.7 1.9 1.8 1.9 1.2 0 1.9-0.8 1.9-2.1v-3.3z"/>
							<path id="&lt;Compound Path&gt;" fill-rule="evenodd" class="s4" d="m494.8 291.7c0 2-1.4 3.3-3.2 3.3-0.9 0-1.7-0.4-2.3-1v3.2h-1.1v-8.6h1.1v1c0.5-0.7 1.3-1.1 2.3-1.1 1.8 0 3.2 1.3 3.2 3.2zm-1.2 0c0-1.3-0.9-2.2-2.1-2.2-1.3 0-2.2 0.9-2.2 2.2 0 1.4 0.9 2.3 2.2 2.3 1.2 0 2.1-0.9 2.1-2.3z"/>
							<path id="&lt;Compound Path&gt;" class="s4" d="m509.2 288.6l-2.4 6.3h-1.1l-1.8-4.8-1.9 4.8h-1.1l-2.3-6.3h1.1l1.8 5 1.9-5h1l1.9 5.1 1.9-5.1z"/>
							<path id="&lt;Compound Path&gt;" class="s4" d="m510.2 286.6c0-0.4 0.3-0.8 0.8-0.8 0.4 0 0.7 0.4 0.7 0.8 0 0.4-0.3 0.7-0.7 0.7-0.5 0-0.8-0.3-0.8-0.7zm0.2 2h1.1v6.3h-1.1z"/>
							<path id="&lt;Compound Path&gt;" class="s4" d="m517.3 294.6c-0.3 0.3-0.9 0.4-1.4 0.4-1.3 0-2-0.7-2-2v-3.5h-1.1v-0.9h1.1v-1.4h1.1v1.4h1.9v0.9h-1.9v3.5c0 0.6 0.4 1 1 1 0.4 0 0.7-0.1 0.9-0.3z"/>
							<path id="&lt;Compound Path&gt;" class="s4" d="m524.7 291.3v3.6h-1.1v-3.5c0-1.3-0.6-1.9-1.7-1.9-1.3 0-2.1 0.8-2.1 2.1v3.3h-1.1v-8.9h1.1v3.5c0.5-0.6 1.3-1 2.3-1 1.5 0 2.6 0.9 2.6 2.8z"/>
							<path id="&lt;Compound Path&gt;" class="s4" d="m536.1 290.7h1.1v3.3c-0.8 0.7-2 1-3.1 1-2.6 0-4.5-1.8-4.5-4.3 0-2.5 1.9-4.3 4.5-4.3 1.3 0 2.4 0.5 3.2 1.3l-0.7 0.8c-0.7-0.7-1.5-1-2.5-1-1.9 0-3.3 1.4-3.3 3.2 0 1.9 1.4 3.3 3.3 3.3 0.7 0 1.4-0.2 2-0.6z"/>
							<path id="&lt;Compound Path&gt;" fill-rule="evenodd" class="s4" d="m538.8 291.7c0-1.9 1.4-3.2 3.3-3.2 1.9 0 3.3 1.3 3.3 3.2 0 1.9-1.4 3.3-3.3 3.3-1.9 0-3.3-1.4-3.3-3.3zm5.4 0c0-1.3-0.9-2.2-2.1-2.2-1.2 0-2.2 0.9-2.2 2.2 0 1.4 1 2.3 2.2 2.3 1.2 0 2.1-0.9 2.1-2.3z"/>
							<path id="&lt;Compound Path&gt;" fill-rule="evenodd" class="s4" d="m546.4 291.7c0-1.9 1.4-3.2 3.3-3.2 1.9 0 3.3 1.3 3.3 3.2 0 1.9-1.4 3.3-3.3 3.3-1.9 0-3.3-1.4-3.3-3.3zm5.4 0c0-1.3-0.9-2.2-2.1-2.2-1.2 0-2.1 0.9-2.1 2.2 0 1.4 0.9 2.3 2.1 2.3 1.2 0 2.1-0.9 2.1-2.3z"/>
							<path id="&lt;Compound Path&gt;" fill-rule="evenodd" class="s4" d="m560.7 288.6v5.5c0 2.2-1.2 3.2-3.3 3.2-1.2 0-2.4-0.3-3.1-0.9l0.6-0.9c0.6 0.5 1.5 0.8 2.4 0.8 1.5 0 2.2-0.7 2.2-2.1v-0.5c-0.5 0.6-1.4 1-2.3 1-1.8 0-3.2-1.3-3.2-3.1 0-1.9 1.4-3.1 3.2-3.1 1 0 1.9 0.4 2.4 1v-0.9zm-1.1 3c0-1.3-1-2.1-2.2-2.1-1.3 0-2.2 0.8-2.2 2.1 0 1.2 0.9 2.1 2.2 2.1 1.2 0 2.2-0.9 2.2-2.1z"/>
							<path id="&lt;Compound Path&gt;" class="s4" d="m562.9 286h1.1v8.9h-1.1z"/>
							<path id="&lt;Compound Path&gt;" fill-rule="evenodd" class="s4" d="m571.9 292.1h-5.1c0.1 1.1 1 1.9 2.3 1.9q1.1 0 1.8-0.8l0.7 0.8c-0.6 0.6-1.5 1-2.5 1-2.1 0-3.5-1.4-3.5-3.3 0-1.8 1.4-3.2 3.2-3.2 1.9 0 3.2 1.3 3.2 3.3 0 0.1 0 0.2-0.1 0.3zm-5.1-0.8h4.1c-0.2-1.1-1-1.8-2.1-1.8-1.1 0-1.9 0.7-2 1.8z"/>
						</g>
						<g id="&lt;Group&gt;">
							<path id="&lt;Path&gt;" class="s4" d="m439.8 291.4v1c0 3.1-2.5 5.4-5.9 5.4-3.6 0-6.4-2.7-6.4-6.2 0-3.6 2.7-6.3 6.3-6.3 1.8 0 3.5 0.8 4.6 2.1 0.4 0.4 0.2 1.1-0.3 1.4-0.4 0.2-0.9 0.1-1.2-0.2-1.2-1.4-3.6-1.9-5.5-0.6-1.2 0.8-2 2.1-2 3.6 0 2.5 1.9 4.3 4.5 4.3 2 0 3.4-1 3.8-2.6h-4.6v-1.9z"/>
						</g>
					</g>
				</g>
			</g>
			<g id="&lt;Group&gt;">
				<path id="&lt;Path&gt;" class="s6" d="m683.4 185.2c0 11.6-9.4 21-21 21-11.5 0-20.9-9.4-20.9-21 0-11.6 9.4-20.9 20.9-20.9 11.6 0 21 9.3 21 20.9z"/>
			</g>
			<g id="&lt;Group&gt;">
				<g id="&lt;Group&gt;">
					<g id="&lt;Group&gt;">
						<path id="&lt;Path&gt;" class="s2" d="m657.1 193.7l-3.1-3.1 13.8-13.9 3.1 3.1z"/>
					</g>
				</g>
				<g id="&lt;Group&gt;">
					<g id="&lt;Group&gt;">
						<path id="&lt;Path&gt;" class="s2" d="m670.9 190.6l-3.1 3.1-13.8-13.9 3.1-3.1z"/>
					</g>
				</g>
			</g>
		</g>
	</g>
	<g id="Speech Bubble">
		<g id="&lt;Group&gt;">
			<g id="&lt;Group&gt;">
				<g id="&lt;Group&gt;">
					<g id="&lt;Group&gt;">
						<g id="&lt;Group&gt;">
							<g id="&lt;Group&gt;">
								<g id="&lt;Group&gt;">
									<g id="&lt;Group&gt;">
										<g id="&lt;Group&gt;">
											<g id="&lt;Group&gt;">
												<g id="&lt;Group&gt;">
													<g id="&lt;Group&gt;">
														<g id="&lt;Group&gt;">
															<g id="&lt;Group&gt;">
																<g id="&lt;Group&gt;">
																	<g id="&lt;Group&gt;">
																		<path id="&lt;Path&gt;" class="s2" d="m203.1 738.1l-12.9-1.6c-8.3 5.5-18.2 8.6-29 8.4-25.4-0.7-46.5-20.9-48.3-46.3-2.1-29.2 21.5-54 51-53.2 25.1 0.6 46.1 20.4 48.2 45.4 1.1 12.4-2.4 24-9.1 33.3z"/>
																	</g>
																</g>
															</g>
														</g>
														<g id="&lt;Group&gt;">
															<g id="&lt;Group&gt;">
																<g id="&lt;Group&gt;">
																	<g id="&lt;Group&gt;">
																		<g id="&lt;Group&gt;">
																			<path id="&lt;Path&gt;" class="s4" d="m203.1 738.1q0 0 0-0.9 0-1-0.1-2.8c0-2.3-0.1-5.8-0.2-10.3l0.3 0.1q0 0 0 0.1c-0.1 0-0.2 0-0.2-0.1q-0.1-0.1-0.1-0.2c3.6-5 7.5-12.5 8.8-22.2 0.6-4.8 0.6-10.1-0.4-15.7-1.1-5.5-3.2-11.2-6.5-16.6-3.3-5.4-7.8-10.4-13.4-14.4-5.6-4-12.2-7.1-19.5-8.4-7.3-1.4-15.1-1.1-22.6 0.9-7.5 2.1-14.6 6.2-20.5 11.7-3.1 2.8-5.6 6.1-7.8 9.4-1 1.8-2 3.5-2.9 5.3l-1.2 2.7-0.6 1.4-0.4 1.4c-2.5 7.5-3.1 15.3-2 22.7 0.9 7.4 3.8 14.3 7.6 20 3.9 5.8 8.7 10.6 14 14.1 5.3 3.5 11 5.9 16.5 7.1q2.1 0.4 4.1 0.7c1.4 0.2 2.7 0.3 4 0.4 2.7 0.2 5.2 0.1 7.7-0.2 9.7-0.9 17.3-4.6 22.4-7.9q0-0.1 0.1 0c4.1 0.5 7.3 0.9 9.5 1.2q1.7 0.2 2.6 0.4 0.8 0.1 0.8 0.1 0 0-0.8-0.1-0.9-0.1-2.5-0.2c-2.2-0.3-5.5-0.6-9.7-1.1h0.2c-5.1 3.4-12.7 7.2-22.6 8.2-2.4 0.2-5 0.4-7.7 0.2-1.3-0.1-2.7-0.1-4.1-0.3q-2-0.4-4.1-0.8c-5.6-1.2-11.4-3.5-16.8-7.1-5.4-3.5-10.3-8.3-14.2-14.2-3.9-5.9-6.9-12.8-7.9-20.4-1-7.5-0.5-15.5 2.1-23.1l0.4-1.4 0.6-1.4q0.6-1.4 1.2-2.8c0.9-1.8 1.9-3.6 2.9-5.4 2.3-3.4 4.8-6.7 7.9-9.5 6-5.7 13.3-9.9 21-11.9 7.6-2.1 15.6-2.4 23-1 7.4 1.4 14.1 4.6 19.8 8.6 5.6 4.1 10.2 9.2 13.6 14.7 3.3 5.5 5.4 11.3 6.4 16.9 1 5.6 1.1 11 0.4 15.9-1.4 9.8-5.4 17.3-9.1 22.3l-0.2-0.2q0 0 0 0c0.1-0.1 0.2-0.1 0.3 0q0 0 0 0.1c0 4.5 0 8 0 10.5q0 1.7 0 2.6-0.1 0.9-0.1 0.9z"/>
																		</g>
																	</g>
																</g>
															</g>
														</g>
													</g>
												</g>
											</g>
										</g>
									</g>
								</g>
							</g>
						</g>
					</g>
				</g>
			</g>
			<g id="&lt;Group&gt;">
				<g id="&lt;Group&gt;">
					<g id="&lt;Group&gt;">
						<g id="&lt;Group&gt;">
							<g id="&lt;Group&gt;">
								<g id="&lt;Group&gt;">
									<g id="&lt;Group&gt;">
										<g id="&lt;Group&gt;">
											<g id="&lt;Group&gt;">
												<g id="&lt;Group&gt;">
													<g id="&lt;Group&gt;">
														<g id="&lt;Group&gt;">
															<path id="&lt;Path&gt;" class="s6" d="m140.6 698.2l6.2-6.7 12.8 10.6 23.7-24.3 6.2 6.2-30.4 30.6z"/>
														</g>
													</g>
												</g>
											</g>
										</g>
									</g>
								</g>
							</g>
						</g>
					</g>
				</g>
			</g>
		</g>
	</g>
	<g id="Character">
		<g id="&lt;Group&gt;">
			<g id="&lt;Group&gt;">
				<g id="&lt;Group&gt;">
					<g id="&lt;Group&gt;">
						<g id="&lt;Group&gt;">
							<path id="&lt;Path&gt;" class="s4" d="m282.7 585.5c1.3-3.9 4.4-7.2 8.3-8.5 1.6-0.6 3.5-0.9 4.4-2.3 0.6-1 0.6-2.3 0.9-3.5 0.9-3.5 5.2-5.8 8.6-4.5 0.9 0.4 1.7 0.9 2.6 0.9 3.6 0.1 4.2-6.9 7.8-6.8-1 1.2-1.9 2.6-2 4.1-0.1 1.6 0.8 3.3 2.3 3.7 3.8 1.1 5.7-6.5 9.7-6 2.1 0.3 3.7 3 5.8 2.5 0.9-0.2 1.5-0.8 2.2-1.3 2.4-1.5 5.9-0.7 7.4 1.7 1.3 2.1 1.5 5.3 3.8 5.9 1.4 0.4 2.9-0.5 4.1-1.3 1 2 1.4 4.2 1.4 6.4 4.5 0.3 8.3 4.8 7.8 9.2 2.3 0.5 4.8 1.1 6.8 2.5 2 1.3 3.4 3.7 3 6.1-0.1 0.5-0.3 1.1-0.2 1.6 0 0.6 0.4 1.1 0.8 1.6 1.4 1.8 3.2 3.3 4.1 5.4 1 2.1 0.6 5.1-1.6 5.9-0.5 0.2-1.1 0.3-1.4 0.8-0.2 0.3-0.1 0.8 0 1.2 0.4 1.6 1.5 2.9 2.5 4.2 0.9 1.4 1.7 3 1.4 4.6-0.3 1.7-2.1 3.1-3.6 2.4q2.6 3 5.1 6c1 1.2 2.1 2.7 1.6 4.2-0.6 1.9-3.5 2-5.2 1-1.8-1.1-3-2.9-4.8-4-0.7-0.4-1.5-0.7-2.1-1.2-0.5-0.5-0.9-1.1-1.6-1.2-1.3-0.4-2.1 1.6-1.4 2.8 0.7 1.1 2.1 1.5 3.3 2.1 1.3 0.6 2.5 1.6 2.4 2.9-0.1 0.6-0.4 1.2-0.5 1.9-0.1 2.2 3.3 2.6 4.6 4.5 0.9 1.3 0.5 3.2 0 4.7-0.7 1.9-2.7 4.1-4.3 2.9-0.5-0.4-0.8-1.1-1.3-1.6-0.5-0.6-1.4-0.7-2.2-1-1.9-0.5-3.7-1.7-5-3.2 2.4 1.1 5.2 2.8 5.2 5.5 0 1.1-0.5 2.2-0.9 3.2-0.6 2.1-0.6 4.4-1.2 6.5-0.7 2.1-2.4 4.2-4.6 4.1 1.5 1.6 1.7 4.3 0.5 6.1-1.2 1.9-3.7 2.7-5.8 1.9-0.6-0.2-1.2-0.5-1.8-0.4-0.6 0-1.2 0.5-1.7 0.9-3.2 2.3-7.7 2.6-11.1 0.8q0.7-0.8 1.4-1.5c-3.7 1.2-7.5 2.5-11.4 1.9-3.9-0.5-7.7-3.6-7.7-7.5 0-1.7 0.5-3.7-0.7-4.8-0.9-0.8-2.2-0.7-3.4-0.6q-7.2 0.9-14.5 1.7c-2.3 0.3-4.8 0.5-7-0.5-2.1-1-3.6-3.7-2.4-5.8-1.9-1.4-4.2-2.3-6.6-2.5-2.7-0.3-5.3 0.4-8 0.3-2.7-0.2-5.6-1.3-6.6-3.7-1.1-2.5 1.3-6 3.8-5.1-2.1-3.4-8.6-0.5-10.9-3.8-1.9-2.7 1.1-6 1.9-9.2-0.8-0.8-2.2-1-3.1-1.8-1.9-1.6-0.8-4.8 0.8-6.8 1.6-2 3.6-4.2 3-6.6-0.6-2.6-3.8-4.2-3.5-6.8 0.1-1.4 1.5-2.6 2.9-2.5-0.4-4.9 9-5.6 9.4-10.6 0.1-0.4 0-0.8-0.2-1.1-0.2-0.3-0.5-0.5-0.8-0.7-1.5-0.7-3.2-0.6-4.7-0.9-1.6-0.4-3.3-1.4-3.5-3-0.1-1.6 2.5-2.8 3.2-1.3 0.8-2.1 3.9-2.7 5.5-1.2 0.4-1.7 2.4-2.7 4.1-2.5 1.8 0.1 3.3 1.1 4.8 2"/>
						</g>
					</g>
				</g>
				<g id="&lt;Group&gt;">
					<g id="&lt;Group&gt;">
						<g id="&lt;Group&gt;">
							<path id="&lt;Path&gt;" class="s6" d="m325.5 640.5c-1.2 1.3-2.7 2.3-4.5 2.4-3.3 0.2-5.8-2.6-8.3-4.8-5.7-5-13.9-7.9-16.8-14.9l-2.5-4.1c0.1-2.8 2.5-5.2 5.2-6.1 2.7-0.9 5.7-0.6 8.5-0.1 6.7 1.2 13.5 3.7 17.9 8.9 4.3 5.3 5.2 13.8 0.5 18.7z"/>
						</g>
					</g>
				</g>
				<g id="&lt;Group&gt;">
					<g id="&lt;Group&gt;">
						<g id="&lt;Group&gt;">
							<path id="&lt;Path&gt;" class="s4" d="m341.4 656.1c0.2 0.8 0.7 1.4 1.1 2.1 3.2 4.8 5.9 11.2 2.8 16-0.5 0.7-1.1 1.4-1.3 2.2-0.1 1 0.4 2 0.8 2.9 2.3 5.6 0.6 12.7-4.1 16.5l-69.5 36.6c-3.1-0.2-14.5-7.4-15.4-10.4-0.3-1.2-0.4-2.6-1.1-3.6-0.8-1.5-2.5-2.1-3.9-3.1-1.7-1.3-3-3.2-3.5-5.3-0.2-1.1-0.2-2.1-0.6-3.2-1.5-4.9-8.7-6.8-9.5-11.9-0.3-1.8 0.3-3.6 0.2-5.4-0.2-3.5-3-6.3-4.6-9.6-1.8-3.8-1.9-8.4-0.1-12.2 0.8-1.8 1.9-3.4 2.3-5.4 0.2-1.4-0.1-2.9-0.2-4.4-0.9-9.2 4.1-19.3 12.8-22.5 1.6-0.6 3.2-1 4.7-1.8 2.1-1.1 3.6-2.9 5.2-4.5 6.8-6.6 17.3-10.8 25.7-6.5 7.8-7 21.3-6.1 28.1 1.9 4.4-0.3 9.1-0.5 13.2 1.2 4.1 1.7 7.6 6 6.8 10.4 6.8 2 11.5 9.5 10.4 16.5-0.2 1.2-0.6 2.3-0.3 3.5z"/>
						</g>
					</g>
				</g>
				<g id="&lt;Group&gt;">
					<g id="&lt;Group&gt;">
						<g id="&lt;Group&gt;">
							<path id="&lt;Path&gt;" class="s7" d="m366.3 751.8l-4.6 7.6-21.4 34.9-24.1-20.4c0 0-8.6-17.8-8.6-17.7 0 0-19.2 6.7-35.5-14.3-8.2-10.4-17.9-29.5-25.4-45.3-6.8-14.3 0.4-34.6 3.7-37.6 0 0 4.9-8.4 14.5-12.2 4.3-1.7 10.3-4.9 20-5.2 15.4-0.6 30.6 9.4 37 21.8z"/>
						</g>
					</g>
				</g>
				<g id="&lt;Group&gt;">
					<g id="&lt;Group&gt;">
						<g id="&lt;Group&gt;">
							<path id="&lt;Path&gt;" class="s8" d="m303.2 724.8c-0.5 1.4-1.5 2.4-2.8 3.1q-0.4 0.2-0.8 0.3c-1.7 0.7-3.1-0.3-4.7-1.2-1.4-2.1-2.2-4.3-1-6.3 1.1-2.1 3.6-3.1 5.9-2.5 1.1 0.3 2.3 1 3 2.1 0.8 1.3 1 3.1 0.4 4.5z"/>
						</g>
					</g>
				</g>
				<g id="&lt;Group&gt;">
					<g id="&lt;Group&gt;">
						<g id="&lt;Group&gt;">
							<g id="&lt;Group&gt;">
								<g id="&lt;Group&gt;">
									<g id="&lt;Group&gt;">
										<g id="&lt;Group&gt;">
											<g id="&lt;Group&gt;">
												<path id="&lt;Path&gt;" class="s4" d="m265.7 708c1.7-0.8 3.7-0.2 4.5 1.4 0.8 1.6 0.1 3.5-1.6 4.3-1.6 0.8-3.6 0.2-4.5-1.4-0.8-1.6 0-3.5 1.6-4.3z"/>
											</g>
										</g>
									</g>
								</g>
							</g>
						</g>
					</g>
				</g>
				<g id="&lt;Group&gt;">
					<g id="&lt;Group&gt;">
						<g id="&lt;Group&gt;">
							<g id="&lt;Group&gt;">
								<g id="&lt;Group&gt;">
									<g id="&lt;Group&gt;">
										<g id="&lt;Group&gt;">
											<g id="&lt;Group&gt;">
												<g id="&lt;Group&gt;">
													<path id="&lt;Path&gt;" class="s4" d="m257.1 700.2c0.5-1.2 1.8-2.9 3.8-4 1.9-1.1 4-1.3 5.4-1.1 1.4 0.2 2.2 0.7 2.1 0.9-0.1 0.6-3.3 0.2-6.5 2-3.2 1.8-4.5 4.7-5.1 4.5-0.2-0.1-0.3-1 0.3-2.3z"/>
												</g>
											</g>
										</g>
									</g>
								</g>
							</g>
						</g>
					</g>
				</g>
				<g id="&lt;Group&gt;">
					<g id="&lt;Group&gt;">
						<g id="&lt;Group&gt;">
							<g id="&lt;Group&gt;">
								<g id="&lt;Group&gt;">
									<g id="&lt;Group&gt;">
										<g id="&lt;Group&gt;">
											<g id="&lt;Group&gt;">
												<path id="&lt;Path&gt;" class="s4" d="m284 720.2c-0.4 0.2-0.9 0.4-1.5 0.6-0.6 0.1-1.4 0-2-0.5-1.1-1-1.1-2.3-1.3-3.4q-0.5-3.6-1.1-7.5c-1.5-10.6-2.4-19.3-2-19.3 0.4-0.1 2 8.4 3.5 19.1q0.5 3.9 1 7.5c0.2 1.1 0.3 2.2 0.8 2.7 0.4 0.5 1.3 0.2 2.2-0.2 3.4-1.3 5.5-2.1 5.6-1.9 0.1 0.2-1.9 1.3-5.2 2.9z"/>
											</g>
										</g>
									</g>
								</g>
							</g>
						</g>
					</g>
				</g>
				<g id="&lt;Group&gt;">
					<g id="&lt;Group&gt;">
						<g id="&lt;Group&gt;">
							<g id="&lt;Group&gt;">
								<g id="&lt;Group&gt;">
									<g id="&lt;Group&gt;">
										<g id="&lt;Group&gt;">
											<path id="&lt;Path&gt;" class="s8" d="m307.6 756.2c0 0 16.2-7.6 26.4-25.3 0 0 0.8 20.7-23.5 31.3z"/>
										</g>
									</g>
								</g>
							</g>
						</g>
					</g>
				</g>
				<g id="&lt;Group&gt;">
					<g id="&lt;Group&gt;">
						<g id="&lt;Group&gt;">
							<g id="&lt;Group&gt;">
								<g id="&lt;Group&gt;">
									<g id="&lt;Group&gt;">
										<g id="&lt;Group&gt;">
											<g id="&lt;Group&gt;">
												<g id="&lt;Group&gt;">
													<g id="&lt;Group&gt;">
														<path id="&lt;Path&gt;" class="s4" d="m252.8 693.4c0.7-1.2 2.2-2.7 4.3-3.6 2-1 4.1-1.2 5.5-0.9 1.4 0.2 2.1 0.8 2 1.3-0.2 1-3 1.5-6 2.9-2.9 1.3-5.1 3.2-6.1 2.7-0.4-0.2-0.4-1.2 0.3-2.4z"/>
													</g>
												</g>
											</g>
										</g>
									</g>
								</g>
							</g>
						</g>
					</g>
				</g>
				<g id="&lt;Group&gt;">
					<g id="&lt;Group&gt;">
						<g id="&lt;Group&gt;">
							<g id="&lt;Group&gt;">
								<g id="&lt;Group&gt;">
									<g id="&lt;Group&gt;">
										<g id="&lt;Group&gt;">
											<g id="&lt;Group&gt;">
												<path id="&lt;Path&gt;" class="s4" d="m299.4 694.2c0.9 1.6 0.2 3.6-1.4 4.5-1.6 0.9-3.6 0.4-4.4-1.1-0.9-1.6-0.3-3.6 1.3-4.5 1.6-1 3.6-0.5 4.5 1.1z"/>
											</g>
										</g>
									</g>
								</g>
							</g>
						</g>
					</g>
				</g>
				<g id="&lt;Group&gt;">
					<g id="&lt;Group&gt;">
						<g id="&lt;Group&gt;">
							<g id="&lt;Group&gt;">
								<g id="&lt;Group&gt;">
									<g id="&lt;Group&gt;">
										<g id="&lt;Group&gt;">
											<g id="&lt;Group&gt;">
												<g id="&lt;Group&gt;">
													<path id="&lt;Path&gt;" class="s4" d="m301 679.8c-0.2 0.6-3.3 0-6.6 1.7-3.2 1.6-4.8 4.4-5.3 4.2-0.3-0.1-0.2-1 0.4-2.3 0.6-1.2 2-2.8 4-3.8 2.1-1 4.1-1.2 5.5-0.9 1.4 0.3 2.1 0.8 2 1.1z"/>
												</g>
											</g>
										</g>
									</g>
								</g>
							</g>
						</g>
					</g>
				</g>
				<g id="&lt;Group&gt;">
					<g id="&lt;Group&gt;">
						<g id="&lt;Group&gt;">
							<g id="&lt;Group&gt;">
								<g id="&lt;Group&gt;">
									<g id="&lt;Group&gt;">
										<g id="&lt;Group&gt;">
											<g id="&lt;Group&gt;">
												<g id="&lt;Group&gt;">
													<g id="&lt;Group&gt;">
														<path id="&lt;Path&gt;" class="s4" d="m294.2 667.3c-0.2 1-3.1 1.5-6.1 3-3.1 1.4-5.3 3.3-6.3 2.8-0.4-0.2-0.4-1.2 0.3-2.4 0.8-1.3 2.3-2.8 4.4-3.8 2.1-0.9 4.3-1.2 5.7-0.9 1.4 0.2 2.2 0.8 2 1.3z"/>
													</g>
												</g>
											</g>
										</g>
									</g>
								</g>
							</g>
						</g>
					</g>
				</g>
				<g id="&lt;Group&gt;">
					<g id="&lt;Group&gt;">
						<g id="&lt;Group&gt;">
							<g id="&lt;Group&gt;">
								<g id="&lt;Group&gt;">
									<g id="&lt;Group&gt;">
										<g id="&lt;Group&gt;">
											<path id="&lt;Path&gt;" class="s7" d="m330.2 687.2c-0.9-1.7-1.2-6.8 0.4-8 4.1-3.2 12.4-7.4 18.8 4.1 8.8 15.6-8.7 21.2-9 20.7-0.2-0.3-7-10.9-10.2-16.8z"/>
										</g>
									</g>
								</g>
							</g>
						</g>
					</g>
				</g>
				<g id="&lt;Group&gt;">
					<g id="&lt;Group&gt;">
						<g id="&lt;Group&gt;">
							<g id="&lt;Group&gt;">
								<g id="&lt;Group&gt;">
									<g id="&lt;Group&gt;">
										<g id="&lt;Group&gt;">
											<g id="&lt;Group&gt;">
												<path id="&lt;Path&gt;" class="s8" d="m341.5 695.9c0.1-0.1 0.4 0 1 0 0.5 0 1.4-0.3 2-1.1 1.3-1.5 1.3-4.9-0.2-7.8-0.8-1.4-1.8-2.6-3-3.5-1.1-0.8-2.3-1.2-3.2-0.9-0.9 0.3-1.2 1.1-1.2 1.6 0.1 0.6 0.3 0.9 0.3 0.9-0.1 0.1-0.5 0-0.8-0.8-0.1-0.3-0.1-0.8 0.1-1.3 0.2-0.5 0.7-1 1.3-1.2 1.2-0.6 2.9-0.1 4.2 0.8 1.3 0.9 2.5 2.2 3.4 3.8 1.6 3.2 1.7 7.1-0.2 9-1 0.9-2.1 1.1-2.7 1-0.7-0.1-1-0.4-1-0.5z"/>
											</g>
										</g>
									</g>
								</g>
							</g>
						</g>
					</g>
				</g>
				<g id="&lt;Group&gt;">
					<g id="&lt;Group&gt;">
						<g id="&lt;Group&gt;">
							<path id="&lt;Path&gt;" class="s4" d="m242 696c-2.5-6-3.2-12.6-3.1-19.2 0-4.5 0.4-9.1 2-13.3 1.4-3.5 3.5-6.7 5.8-9.7 5.9-8 13-15.9 22.5-18.6 5.2-1.4 10.6-1.2 15.9-0.9 4.1 0.2 8.2 0.5 12.2 1.6 3.4 1 6.6 2.6 9.7 4.5 7.3 4.4 13.9 10.2 18.4 17.5 4.6 7.2 13.8 10.8 12.7 19.3-0.1 0.6-7 6.5-7.5 7-1 1.2-3.1 0.5-3.8-0.9-0.8-1.3-0.5-3 0.1-4.5-2 1-4.5-0.5-5.5-2.5-0.9-2-0.6-4.3-0.3-6.5 0-0.3 0-0.6-0.1-0.9-0.2-0.7-1.2-0.7-2-0.7-3.7-0.2-6.5-4.6-5-8-4.2 1.1-9.1-2.1-9.7-6.5-0.1-0.6-0.2-1.4-0.7-1.8-0.6-0.4-1.3-0.2-2-0.1-4.8 1-10.1-2.2-11.5-6.9-2.1 1.3-4.3 2.6-6.7 3.2-2.4 0.6-5.1 0.5-7.2-1 0 3.3-1.8 6.5-4.6 8.2-2.8 1.7-6.5 1.8-9.4 0.4-3.5 2.3-7.6 3.7-11.7 4.1 1 3.9-0.2 8.3-2.9 11.1-0.6 0.6-1.2 1.2-1.2 2 0 0.5 0.3 0.9 0.5 1.3 1.3 2.2 0.3 3.9 0.1 6.4-0.2 2.5-0.9 6.4-3.3 6.9 2.2 3.7 1.7 7.5-0.4 11.2"/>
						</g>
					</g>
				</g>
				<g id="&lt;Group&gt;">
					<g id="&lt;Group&gt;">
						<g id="&lt;Group&gt;">
							<path id="&lt;Path&gt;" class="s5" d="m237.2 694.9c0 0-0.2-0.7-0.1-2.2 0.1-0.7 0.2-1.5 0.2-2.6 0.1-1-0.1-2.2-0.7-3.4-0.5-1.2-1.3-2.4-2.2-3.8-0.9-1.4-1.8-2.9-2.4-4.7-0.6-1.9-0.9-4-0.7-6.1q0.2-1.7 0.7-3.3c0.4-1.1 1-2.2 1.5-3.2 0.6-1.1 1.1-2.2 1.3-3.4 0.2-1.2 0-2.5-0.2-3.8-0.3-2.6-0.1-5.4 0.5-8.1 0.7-2.8 1.8-5.6 3.5-8 0.9-1.3 1.9-2.4 3-3.5 1.2-1.1 2.5-2 3.9-2.8 0.7-0.4 1.5-0.6 2.2-1 0.8-0.2 1.6-0.5 2.3-0.7 1.6-0.5 3-1.2 4.2-2.3 1.3-1.1 2.4-2.3 3.6-3.5 1.3-1.2 2.6-2.2 4-3.2 1.5-1 3-1.8 4.6-2.6q2.5-1.1 5.1-1.7c3.5-0.7 7.4-0.6 10.8 0.9q0.5 0.3 1 0.5h-0.3c4.1-3.7 9.8-5.1 15-4.7 5.2 0.5 10.2 2.8 13.5 6.6l-0.2-0.1c2.3-0.1 4.7-0.2 7.1-0.1 2.3 0.2 4.6 0.6 6.7 1.6 2 1 3.8 2.5 5 4.3 1.2 1.8 1.8 4 1.4 6.1l-0.2-0.2c3.5 1 6.3 3.4 8.1 6.1 1.8 2.7 2.7 5.8 2.6 8.7 0 0.7-0.1 1.4-0.2 2.1-0.1 0.7-0.3 1.3-0.3 2 0 0.6 0 1.3 0.3 1.8 0.2 0.6 0.6 1.1 0.9 1.6 1.4 2.1 2.4 4.1 3.1 6.1 0.7 1.9 1 3.8 1 5.4-0.1 1.6-0.6 2.9-1.1 3.9-0.5 0.9-1.1 1.5-1.3 2-0.3 0.5-0.3 0.8-0.4 0.8 0 0 0-0.3 0.3-0.8 0.2-0.5 0.8-1.1 1.3-2.1 0.5-1 0.9-2.3 1-3.8 0-1.6-0.3-3.4-1-5.3-0.7-1.9-1.8-3.9-3.1-6-0.4-0.5-0.7-1-1-1.6-0.3-0.7-0.4-1.4-0.3-2 0-0.7 0.2-1.4 0.3-2.1 0-0.7 0.2-1.3 0.1-2.1 0.1-2.8-0.8-5.8-2.6-8.4-1.7-2.6-4.4-4.9-7.8-5.9l-0.2-0.1v-0.2c0.4-1.9-0.2-4-1.3-5.8-1.2-1.7-2.9-3.1-4.8-4.1-2-0.9-4.3-1.3-6.6-1.5-2.3-0.1-4.6 0-7 0.2h-0.1l-0.1-0.1c-3.2-3.7-8-6-13.2-6.4-5-0.5-10.6 0.9-14.6 4.5l-0.1 0.1h-0.2q-0.5-0.3-0.9-0.5c-3.3-1.5-7.1-1.5-10.5-0.8q-2.6 0.5-5 1.6c-1.5 0.7-3 1.6-4.5 2.5-1.4 1-2.7 2-3.9 3.2-1.2 1.1-2.4 2.4-3.6 3.5q-1 0.8-2.1 1.4c-0.8 0.4-1.5 0.7-2.3 1-0.8 0.2-1.6 0.4-2.3 0.7-0.7 0.3-1.5 0.6-2.2 1-1.4 0.7-2.6 1.6-3.7 2.6-1.1 1.1-2.2 2.2-3 3.4-1.7 2.5-2.8 5.2-3.4 7.9-0.7 2.7-0.8 5.4-0.5 8 0.1 1.3 0.3 2.6 0.1 3.9-0.2 1.3-0.8 2.4-1.3 3.5-0.6 1-1.2 2-1.5 3.1q-0.6 1.6-0.7 3.2c-0.3 2.1 0 4.2 0.6 6 0.5 1.8 1.5 3.3 2.3 4.6 0.9 1.4 1.7 2.7 2.2 3.9 0.5 1.3 0.7 2.5 0.7 3.6 0 1-0.2 1.9-0.2 2.6q-0.1 1-0.1 1.5 0 0.6 0 0.6z"/>
						</g>
					</g>
				</g>
				<g id="&lt;Group&gt;">
					<g id="&lt;Group&gt;">
						<g id="&lt;Group&gt;">
							<path id="&lt;Path&gt;" class="s5" d="m273.9 623.2c0 0.1-0.6 0-1.5 0-1 0.1-2.4 0.3-4 0.9-1.6 0.6-3.4 1.8-4.8 3.6-1.3 1.8-2.3 4.2-2.3 6.8 0 0.8 0 1.5 0.2 2.2 0.1 0.7 0.4 1.4 1 1.6l0.7 0.3-0.8 0.2c-2 0.5-3.6 1.8-4.5 3.2-1 1.5-1.2 3.1-1.1 4.4 0.1 1.3 0.5 2.3 0.8 2.9 0.3 0.7 0.6 1 0.5 1q0 0-0.2-0.2-0.2-0.2-0.4-0.7c-0.4-0.6-0.9-1.6-1-3-0.2-1.3 0-3 1-4.6 1-1.6 2.6-3 4.8-3.5v0.5c-0.8-0.4-1.2-1.2-1.4-2q-0.2-1.1-0.2-2.3c0.1-2.7 1.1-5.3 2.6-7.1 1.4-1.9 3.3-3 5-3.6 1.6-0.7 3.1-0.8 4.1-0.8q0.7 0 1.1 0.1 0.4 0.1 0.4 0.1z"/>
						</g>
					</g>
				</g>
				<g id="&lt;Group&gt;">
					<g id="&lt;Group&gt;">
						<g id="&lt;Group&gt;">
							<path id="&lt;Path&gt;" class="s5" d="m309.3 627.3c0 0-0.1 0.3-0.3 0.8-0.2 0.6-0.5 1.4-1.1 2.3-0.6 0.8-1.4 1.8-2.6 2.6-1.2 0.8-2.8 1.3-4.6 1l0.4-0.3q-0.1 0.5-0.1 0.9-0.1 0.5-0.2 0.9c-0.5 1.9-1.5 3.5-2.6 4.6-1.2 1.2-2.4 2-3.5 2.5-1.1 0.6-2.1 0.7-2.8 0.8-0.7 0.1-1.1 0.1-1.1 0 0-0.1 1.6 0 3.7-1.1 1.1-0.5 2.3-1.4 3.3-2.5 1.1-1.2 2-2.7 2.4-4.4q0.1-0.4 0.2-0.9 0.1-0.4 0.1-0.8l0.1-0.3h0.2c1.6 0.3 3.1-0.1 4.2-0.8 1.2-0.7 2-1.6 2.6-2.4 1.2-1.7 1.6-3 1.7-2.9z"/>
						</g>
					</g>
				</g>
				<g id="&lt;Group&gt;">
					<g id="&lt;Group&gt;">
						<g id="&lt;Group&gt;">
							<path id="&lt;Path&gt;" class="s5" d="m325.5 637.3q0.1 0 0.2 0.3c0 0.2 0.1 0.6 0 1 0 0.8-0.5 2-1.6 3-1.1 1.1-2.8 1.7-4.7 2-1 0.2-2 0.3-3.1 0.4-1 0-2.2 0-3.2-0.8q-0.1-0.1-0.2-0.2l0.4-0.1c-0.9 2-1.9 3.9-3.1 5.4-1.3 1.4-2.8 2.4-4.2 2.8-1.4 0.5-2.6 0.5-3.4 0.3q-0.6-0.1-0.9-0.3-0.3-0.1-0.3-0.1c0-0.1 0.5 0.1 1.2 0.2 0.8 0.1 2 0.1 3.3-0.4 1.3-0.5 2.7-1.4 3.9-2.9 1.2-1.4 2.1-3.2 3-5.2l0.1-0.3 0.3 0.2q0.1 0.1 0.2 0.2c0.8 0.6 1.9 0.7 2.9 0.7 1-0.1 2-0.2 3-0.4 1.8-0.3 3.5-0.8 4.6-1.7 1-1 1.5-2.1 1.6-2.8 0.1-0.8 0-1.3 0-1.3z"/>
						</g>
					</g>
				</g>
				<g id="&lt;Group&gt;">
					<g id="&lt;Group&gt;">
						<g id="&lt;Group&gt;">
							<path id="&lt;Path&gt;" class="s5" d="m311.6 572c0.1 0-0.2 0.2-0.6 0.5-0.4 0.4-0.9 1.1-1.2 2.1-0.2 1-0.1 2.4 0.5 3.7 0.6 1.3 1.7 2.6 2.9 3.9l0.2 0.3-0.2 0.1c-1.8 0.9-3.5 2.5-4.6 4.6-1 2.1-1.2 4.9 0.1 7.2 1 2.1 3 3.6 5.1 3.9l0.8 0.2-0.7 0.3c-2.4 1.3-4 3.7-4.5 5.9-0.6 2.3-0.1 4.4 0.6 5.9 0.8 1.6 1.7 2.6 2.4 3.2 0.8 0.6 1.2 0.9 1.2 0.9q0 0-0.3-0.1-0.4-0.2-1-0.6c-0.7-0.6-1.8-1.6-2.6-3.2-0.8-1.6-1.3-3.8-0.7-6.2 0.5-2.3 2.1-4.8 4.7-6.2v0.5c-2.2-0.4-4.4-2-5.5-4.3-0.6-1.2-1-2.6-0.9-3.9 0-1.3 0.3-2.6 0.9-3.7 1.1-2.2 2.9-3.9 4.8-4.8l-0.1 0.3c-1.2-1.3-2.3-2.7-2.9-4.1-0.7-1.4-0.7-2.8-0.4-3.8 0.3-1.1 0.8-1.8 1.3-2.2q0.3-0.2 0.5-0.3 0.2-0.1 0.2-0.1z"/>
						</g>
					</g>
				</g>
				<g id="&lt;Group&gt;">
					<g id="&lt;Group&gt;">
						<g id="&lt;Group&gt;">
							<path id="&lt;Path&gt;" class="s5" d="m358.3 590.7q0 0-0.1 0.3c-0.2 0.2-0.3 0.4-0.6 0.8-0.6 0.6-1.5 1.5-2.8 2.4-1.3 0.9-3.1 1.7-5.3 2.1-2.1 0.5-4.7 0.4-7.2-0.5l0.4-0.3c-0.1 3.1-1.5 6.6-4.4 8.8-3.2 2.2-7.5 2.2-10.1 0.1l0.4-0.3c0.2 1.3 0 2.6-0.5 3.7-0.4 1.2-1 2.1-1.7 2.9-1.5 1.6-3.2 2.5-4.6 3.1-1.4 0.7-2.5 1-3.3 1.2-0.8 0.3-1.2 0.4-1.3 0.3 0 0 0.5-0.2 1.2-0.4 0.8-0.3 2-0.7 3.3-1.3 1.4-0.7 3-1.6 4.3-3.2 1.4-1.5 2.5-3.7 2.1-6.2l-0.1-0.6 0.5 0.4c2.4 1.9 6.5 2 9.4-0.2 2.8-2 4.1-5.3 4.3-8.3v-0.3l0.3 0.1c2.4 0.9 4.9 1 7 0.6 2.1-0.3 3.8-1.1 5.1-1.9 2.7-1.7 3.6-3.4 3.7-3.3z"/>
						</g>
					</g>
				</g>
				<g id="&lt;Group&gt;">
					<g id="&lt;Group&gt;">
						<g id="&lt;Group&gt;">
							<path id="&lt;Path&gt;" class="s5" d="m354.4 622.7c0.1 0 0.1 0.1 0 0.4-0.1 0.2-0.3 0.6-0.7 0.9-0.7 0.5-2 1.1-3.7 1.3-1.7 0.2-3.9 0-5.9-1.2-2-1.1-3.8-3.1-4.6-5.6h0.5c-1.5 2.2-3.7 3.6-5.8 4.4-2.2 0.7-4.2 0.7-5.9 0.5-1.7-0.2-3-0.7-3.9-1-0.8-0.4-1.3-0.7-1.2-0.7 0-0.2 1.8 1 5.1 1.3 1.7 0.2 3.7 0.1 5.7-0.6 2.1-0.7 4.1-2.1 5.6-4.2l0.3-0.4 0.1 0.5 0.1 0.1c0.7 2.3 2.4 4.2 4.3 5.3 1.9 1.1 3.9 1.3 5.5 1.2 1.6-0.1 3-0.6 3.7-1.1 0.8-0.5 0.8-1.1 0.8-1.1z"/>
						</g>
					</g>
				</g>
				<g id="&lt;Group&gt;">
					<g id="&lt;Group&gt;">
						<g id="&lt;Group&gt;">
							<path id="&lt;Path&gt;" class="s5" d="m277.6 591.4c0.1-0.1 0.1 2.2 1.9 5.2 1 1.4 2.4 3 4.3 4.2 2 1.1 4.5 1.7 7.1 1.5 1.5-0.1 2.8-0.5 4.1-1l0.3-0.2 0.1 0.4c0.4 2 1.2 3.9 2.2 5.4 0.9 1.4 2 2.6 3 3.5 0.5 0.4 1 0.7 1.4 1 0.5 0.3 0.9 0.3 1.2 0.2 0.3-0.1 0.5-0.4 0.6-0.6 0-0.1 0-0.2 0-0.2 0 0 0.1 0.1 0 0.3 0 0.2-0.1 0.5-0.5 0.7-0.4 0.2-0.9 0.1-1.4-0.2q-0.7-0.4-1.5-1c-1-0.8-2.2-2-3.2-3.5-1-1.5-1.9-3.4-2.4-5.5l0.4 0.2c-1.3 0.6-2.7 0.9-4.3 1.1-2.7 0.2-5.3-0.5-7.3-1.7-2.1-1.2-3.5-2.9-4.4-4.4-0.9-1.5-1.3-2.9-1.5-3.9q-0.1-0.7-0.1-1.1 0-0.4 0-0.4z"/>
						</g>
					</g>
				</g>
				<g id="&lt;Group&gt;">
					<g id="&lt;Group&gt;">
						<g id="&lt;Group&gt;">
							<path id="&lt;Path&gt;" class="s4" d="m301.5 718c0.3 1.3 0.2 3.5-1.1 5.5-1.3 1.9-3.3 3.1-4.8 3.5-1.4 0.4-2.4 0.2-2.4 0-0.1-0.5 3.5-1.2 5.6-4.4 2.1-3.3 1-6.5 1.6-6.7 0.2-0.1 0.8 0.6 1.1 2.1z"/>
						</g>
					</g>
				</g>
			</g>
			<g id="&lt;Group&gt;">
				<g id="&lt;Group&gt;">
					<path id="&lt;Path&gt;" class="s6" d="m323.5 760.5c6.9-18.6 14.6-26.9 33.1-29.6 26.9-3.9 58.5 39.7 58.5 39.7 0 0 33.3 50.9 47.5 54.3 3.6 0.9 11.4-2.8 14.1-2.7 6.2 0.3 7.5 5.7 7.5 5.7l-27.4 94c-15.2 3.7-58.8-13.5-58.8-13.5 0 0-32.8-8.6-51-26.1-17.1-16.4-31.2-109.7-31.2-109.7 3.4-3.5 6-7.6 7.7-12.1z"/>
				</g>
				<g id="&lt;Group&gt;">
					<path id="&lt;Path&gt;" class="s6" d="m352 816.6l-19 78.7-96.1-43.5 9.8-33.1 56.8 16.1 12.3-62.2z"/>
				</g>
				<g id="&lt;Group&gt;">
					<g id="&lt;Group&gt;">
						<path id="&lt;Path&gt;" class="s4" d="m444.4 882.4c-0.3-0.1 3.9-11.8 9.3-26.1 5.5-14.2 10.1-25.7 10.4-25.6 0.2 0.1-4 11.7-9.4 26-5.4 14.3-10 25.8-10.3 25.7z"/>
					</g>
				</g>
				<g id="&lt;Group&gt;">
					<g id="&lt;Group&gt;">
						<path id="&lt;Path&gt;" class="s4" d="m443.3 869.3c-0.2-0.1 2.1-7.1 5.3-15.7 3.1-8.6 5.9-15.4 6.2-15.3 0.2 0.1-2.1 7.1-5.3 15.7-3.1 8.5-5.9 15.4-6.2 15.3z"/>
					</g>
				</g>
				<g id="&lt;Group&gt;">
					<g id="&lt;Group&gt;">
						<path id="&lt;Path&gt;" class="s4" d="m314.3 790.6c0.3 0 0.6 6.5 0.9 14.5 0.1 4.1 0.3 7.7 0.5 10.3 0.1 2.6 0.3 4.3 0.1 4.3-0.1 0-0.5-1.6-0.9-4.2-0.3-2.6-0.6-6.3-0.8-10.3-0.1-4.1-0.1-7.7-0.1-10.4 0.1-2.6 0.2-4.2 0.3-4.2z"/>
					</g>
				</g>
				<g id="&lt;Group&gt;" style="opacity: .3">
					<path id="&lt;Path&gt;" class="s9" d="m283 872.7l21.2-9.2 11.6-41.1-7.9 50.6-15.6 3.9z"/>
				</g>
				<g id="&lt;Group&gt;" style="opacity: .3">
					<g id="&lt;Group&gt;">
						<path id="&lt;Path&gt;" class="s9" d="m460.4 839.1c-4.1 14.2-9.2 28.1-15.2 41.5-0.6 1.4-1.4 2.9-2.8 3.1-1.5 0.2-2.8-1.4-2.9-3-0.2-1.7 0.4-3.3 1-4.8q6.3-15.9 12.5-31.8c0.7-1.6 1.3-3.2 2.5-4.4 1.2-1.2 3-1.8 4.3-1"/>
					</g>
				</g>
			</g>
			<g id="&lt;Group&gt;">
				<g id="&lt;Group&gt;">
					<g id="&lt;Group&gt;">
						<path id="&lt;Path&gt;" class="s7" d="m158.6 827c0 0 7.7-10.2 12.2-12.4 3.6-1.8 24.9-5.5 27.5-5 2.6 0.5 48.4 10.5 48.4 10.5l-5.9 20-3-1.3c0 0-9.2 4.6-16.3 2.4-7-2.2-16.1-8.5-16.1-8.5l-6.3 2.4c0 0 7 2.2 7.5 5 0.5 2.9-3.4 3.2-3.4 3.2l-0.3 1.3c-0.5 2.2-2.7 3.6-4.9 3.1-4.1-0.8-9.9-2.2-11.2-3.6-0.6-0.6-3.4-5.7-3.4-5.7-4.3-3-4.2-6-3.9-7.9 0.4-3.6 4.3-7.7 4.3-7.7l-7.7-0.5c0 0-12.5 12.8-17.5 4.7z"/>
					</g>
				</g>
				<g id="&lt;Group&gt;">
					<g id="&lt;Group&gt;">
						<path id="&lt;Path&gt;" class="s7" d="m237.8 838.8c-2.6 2.8-11.5 3.5-15.3 2.7-3.8-0.8-7.1-2.8-10.6-4.6-3.4-1.8-7.1-3.4-11-3.3-1.6 0-3.2 0.3-4.8 0.3-1.6-0.1-3.3-0.8-4.1-2.2-1-1.6-0.4-3.8 1-5.1 1.3-1.4 3.1-2 4.9-2.5 7-1.7 15.8-0.5 25.1-0.5"/>
					</g>
					<g id="&lt;Group&gt;">
						<g id="&lt;Group&gt;">
							<path id="&lt;Path&gt;" class="s8" d="m237.8 838.8c0.1 0-0.1 0.2-0.6 0.6-0.4 0.4-1.1 0.9-2.2 1.3-2 0.8-5.1 1.5-9 1.5-2 0-4.2-0.3-6.3-1.1-2.2-0.7-4.4-1.9-6.6-3.1-2.3-1.1-4.6-2.4-7.2-3.2-1.3-0.4-2.7-0.6-4.1-0.7-1.3-0.1-2.7 0.2-4.3 0.3-1.5 0.1-3.1-0.1-4.5-0.9-1.4-0.8-2.2-2.6-2-4.1 0.2-1.5 1.1-2.9 2.2-3.8 1.2-0.8 2.5-1.3 3.7-1.7 5.1-1.4 9.8-1.1 13.6-1 3.7 0.2 6.8 0.4 9.1 0.5 2.2 0.1 3.4 0.2 3.4 0.2q0 0.1-0.9 0.1-0.8 0.1-2.5 0.1c-2.1 0-5.2-0.1-9.1-0.2-3.8 0-8.5-0.1-13.3 1.2-1.2 0.4-2.4 0.9-3.3 1.6-1 0.8-1.7 1.9-1.8 3.1-0.2 1.3 0.3 2.5 1.5 3.1 1.1 0.7 2.5 0.8 3.9 0.7 1.4-0.1 2.9-0.3 4.4-0.2 1.5 0 2.9 0.3 4.3 0.8 2.7 0.8 5.1 2.1 7.3 3.3 4.5 2.5 8.6 4.4 12.5 4.3 3.8 0 6.9-0.6 8.9-1.2 2.1-0.7 2.9-1.6 2.9-1.5z"/>
						</g>
					</g>
				</g>
				<g id="&lt;Group&gt;">
					<g id="&lt;Group&gt;">
						<path id="&lt;Path&gt;" class="s8" d="m193.3 821.5c0 0.1-0.9 0.5-2.5 0.8-1.5 0.3-3.7 0.5-6.1 0.6-4.7 0.1-8.6-0.3-8.6-0.6 0-0.3 3.9-0.3 8.6-0.5 2.4 0 4.5-0.1 6-0.2 1.6-0.1 2.5-0.3 2.6-0.1z"/>
					</g>
				</g>
				<g id="&lt;Group&gt;">
					<g id="&lt;Group&gt;">
						<path id="&lt;Path&gt;" class="s8" d="m203.5 843.3c0 0.3-4.9 1.1-10.8-0.5-5.9-1.5-9.9-4.7-9.7-4.8 0.2-0.3 4.3 2.3 9.9 3.8 5.7 1.5 10.6 1.2 10.6 1.5z"/>
					</g>
				</g>
				<g id="&lt;Group&gt;">
					<g id="&lt;Group&gt;">
						<path id="&lt;Path&gt;" class="s8" d="m190.7 832.9c0-0.3 2.1-0.3 4.6 0.4 2.5 0.6 4.3 1.5 4.2 1.8-0.1 0.3-2.1-0.2-4.5-0.8-2.4-0.6-4.3-1.1-4.3-1.4z"/>
					</g>
				</g>
			</g>
			<g id="&lt;Group&gt;">
				<g id="&lt;Group&gt;">
					<path id="&lt;Path&gt;" class="s4" d="m96.6 848.6l50.5-24.7c0.8-0.4 1.8-0.3 2.5 0.2l55.5 35.3c1.3 0.8 1.6 2.7 0.5 3.9l-29.3 39.2z"/>
				</g>
				<g id="&lt;Group&gt;">
					<path id="&lt;Path&gt;" class="s2" d="m148.2 827.5l53.5 33.2-30.9 34.4-67.9-44.7z"/>
				</g>
				<g id="&lt;Group&gt;">
					<path id="&lt;Path&gt;" class="s0" d="m129.3 837.1l58.3 39.3-16.8 18.7-67.9-44.7z"/>
				</g>
				<g id="&lt;Group&gt;">
					<path id="&lt;Path&gt;" class="s0" d="m159.1 838.2l-8.9 7.3c-0.6 0.5-1.5 0.4-1.9-0.2-0.5-0.6-0.4-1.5 0.2-2l8.9-7.2c0.6-0.5 1.4-0.4 1.9 0.2 0.5 0.6 0.4 1.5-0.2 1.9z"/>
				</g>
				<g id="&lt;Group&gt;">
					<path id="&lt;Path&gt;" class="s0" d="m163.1 841.5l-8.9 7.3c-0.6 0.4-1.4 0.4-1.9-0.2-0.5-0.6-0.4-1.5 0.2-2l8.9-7.2c0.6-0.5 1.5-0.4 1.9 0.2 0.5 0.6 0.4 1.4-0.2 1.9z"/>
				</g>
				<g id="&lt;Group&gt;">
					<path id="&lt;Path&gt;" class="s0" d="m167.5 845.4l-9 7.2c-0.5 0.5-1.4 0.4-1.9-0.2-0.5-0.6-0.4-1.4 0.2-1.9l8.9-7.3c0.6-0.5 1.5-0.4 2 0.2 0.4 0.6 0.4 1.5-0.2 2z"/>
				</g>
				<g id="&lt;Group&gt;">
					<path id="&lt;Path&gt;" class="s0" d="m169.2 850.6l-5 4.1c-0.6 0.5-1.5 0.4-2-0.2-0.4-0.6-0.3-1.5 0.2-1.9l5.1-4.2c0.6-0.4 1.5-0.3 1.9 0.2 0.5 0.6 0.4 1.5-0.2 2z"/>
				</g>
				<g id="&lt;Group&gt;">
					<path id="&lt;Path&gt;" class="s6" d="m151.6 837l-5.9 4.1c-0.6 0.5-1.4 0.3-1.9-0.3-0.4-0.6-0.3-1.5 0.4-1.9l5.8-4.1c0.7-0.5 1.5-0.3 2 0.3 0.4 0.6 0.2 1.5-0.4 1.9z"/>
				</g>
				<g id="&lt;Group&gt;">
					<path id="&lt;Path&gt;" class="s6" d="m181.9 856.7l-5.1 5.1c-0.5 0.6-1.4 0.6-1.9 0-0.5-0.5-0.5-1.4 0-1.9l5.1-5.1c0.5-0.5 1.4-0.5 1.9 0 0.6 0.5 0.6 1.4 0 1.9z"/>
				</g>
				<g id="&lt;Group&gt;">
					<path id="&lt;Path&gt;" class="s4" d="m176.3 902.5c-1.3 2.1-4.1 2.7-6.1 1.4l-74.2-47.5c-2.1-1.3-2.7-4-1.4-6.1 1.4-2.1 4.1-2.7 6.2-1.4l74.2 47.5c2 1.3 2.6 4.1 1.3 6.1z"/>
				</g>
			</g>
			<g id="&lt;Group&gt;">
				<g id="&lt;Group&gt;">
					<g id="&lt;Group&gt;">
						<g id="&lt;Group&gt;">
							<g id="&lt;Group&gt;">
								<g id="&lt;Group&gt;">
									<g id="&lt;Group&gt;">
										<g id="&lt;Group&gt;">
											<g id="&lt;Group&gt;">
												<g id="&lt;Group&gt;">
													<path id="&lt;Path&gt;" class="s5" d="m694.9 753.3l6.7-82.2 102 11.7c-1.4 9.7-55.5 21.4-55.5 21.4l-2.1 52.9z"/>
												</g>
											</g>
										</g>
									</g>
								</g>
							</g>
						</g>
						<g id="&lt;Group&gt;" style="opacity: .6">
							<g id="&lt;Group&gt;">
								<g id="&lt;Group&gt;">
									<g id="&lt;Group&gt;">
										<g id="&lt;Group&gt;">
											<g id="&lt;Group&gt;">
												<g id="&lt;Group&gt;">
													<g id="&lt;Group&gt;">
														<path id="&lt;Path&gt;" class="s2" d="m716.2 706.2c-2-0.7-3.2-3-2.6-5 0.7-1.9 3-3.2 5-2.5 1.9 0.7 3.4 3.4 2.6 5.3-0.8 1.9-3.7 3.2-5.4 2.1"/>
													</g>
												</g>
											</g>
										</g>
									</g>
								</g>
							</g>
						</g>
						<g id="&lt;Group&gt;">
							<g id="&lt;Group&gt;">
								<g id="&lt;Group&gt;">
									<g id="&lt;Group&gt;">
										<g id="&lt;Group&gt;">
											<g id="&lt;Group&gt;">
												<g id="&lt;Group&gt;">
													<path id="&lt;Path&gt;" class="s4" d="m804.2 682.1c-1 4.1-4.4 5.1-4.4 5.1l-98.9-7.8 0.7-8.3z"/>
												</g>
											</g>
										</g>
									</g>
								</g>
							</g>
						</g>
						<g id="&lt;Group&gt;">
							<g id="&lt;Group&gt;">
								<g id="&lt;Group&gt;">
									<g id="&lt;Group&gt;">
										<g id="&lt;Group&gt;">
											<g id="&lt;Group&gt;">
												<g id="&lt;Group&gt;">
													<g id="&lt;Group&gt;">
														<path id="&lt;Path&gt;" class="s4" d="m743.9 703.6c-2.8-2.2-3.4-5.2-2.9-5.3 0.5-0.1 1.6 2.1 4 3.9 2.3 1.8 4.8 2.2 4.8 2.7 0 0.5-3 0.8-5.9-1.3z"/>
													</g>
												</g>
											</g>
										</g>
									</g>
								</g>
							</g>
						</g>
						<g id="&lt;Group&gt;">
							<g id="&lt;Group&gt;">
								<g id="&lt;Group&gt;">
									<g id="&lt;Group&gt;">
										<g id="&lt;Group&gt;">
											<g id="&lt;Group&gt;">
												<g id="&lt;Group&gt;">
													<g id="&lt;Group&gt;">
														<path id="&lt;Path&gt;" class="s4" d="m755.9 698.5c-1.9-2.7-1.4-5.6-0.9-5.5 0.5 0 0.8 2.3 2.4 4.5 1.5 2.3 3.6 3.3 3.4 3.8 0 0.4-2.9 0-4.9-2.8z"/>
													</g>
												</g>
											</g>
										</g>
									</g>
								</g>
							</g>
						</g>
						<g id="&lt;Group&gt;">
							<g id="&lt;Group&gt;">
								<g id="&lt;Group&gt;">
									<g id="&lt;Group&gt;">
										<g id="&lt;Group&gt;">
											<g id="&lt;Group&gt;">
												<g id="&lt;Group&gt;">
													<g id="&lt;Group&gt;">
														<path id="&lt;Path&gt;" class="s4" d="m769.3 693.4c0.8 2.4 2.2 3.9 1.9 4.3-0.2 0.4-2.5-0.8-3.5-3.7-1.1-2.8-0.2-5.2 0.2-5.1 0.5 0.1 0.5 2.2 1.4 4.5z"/>
													</g>
												</g>
											</g>
										</g>
									</g>
								</g>
							</g>
						</g>
						<g id="&lt;Group&gt;">
							<g id="&lt;Group&gt;">
								<g id="&lt;Group&gt;">
									<g id="&lt;Group&gt;">
										<g id="&lt;Group&gt;">
											<g id="&lt;Group&gt;">
												<g id="&lt;Group&gt;">
													<g id="&lt;Group&gt;">
														<path id="&lt;Path&gt;" class="s4" d="m742.4 718.2c-3.3-0.4-5.3-2.4-5-2.8 0.3-0.4 2.4 0.8 5.2 1.1 2.8 0.4 5.2-0.1 5.3 0.4 0.3 0.4-2.2 1.8-5.5 1.3z"/>
													</g>
												</g>
											</g>
										</g>
									</g>
								</g>
							</g>
						</g>
					</g>
					<g id="&lt;Group&gt;" style="opacity: .3">
						<g id="&lt;Group&gt;">
							<g id="&lt;Group&gt;">
								<g id="&lt;Group&gt;">
									<g id="&lt;Group&gt;">
										<g id="&lt;Group&gt;">
											<g id="&lt;Group&gt;">
												<path id="&lt;Path&gt;" class="s9" d="m694.9 753.3l6.7-82.2 102 11.7c-1.4 9.7-55.5 21.4-55.5 21.4l-2.1 52.9z"/>
											</g>
										</g>
									</g>
								</g>
							</g>
						</g>
					</g>
				</g>
				<g id="&lt;Group&gt;">
					<path id="&lt;Path&gt;" class="s4" d="m754.6 718.3c-0.9 1.7-7 155.1-7 155.1l-52.8-20.8c0 0-9.4-17.5-7.7-41.4 1.6-23.8 15.6-97.1 15.6-97.1z"/>
				</g>
				<g id="&lt;Group&gt;">
					<g id="&lt;Group&gt;">
						<g id="&lt;Group&gt;">
							<g id="&lt;Group&gt;">
								<g id="&lt;Group&gt;">
									<g id="&lt;Group&gt;">
										<g id="&lt;Group&gt;">
											<g id="&lt;Group&gt;">
												<g id="&lt;Group&gt;">
													<path id="&lt;Path&gt;" class="s5" d="m694.8 783.7l-36.8-73.8 93.2-42.8c3.9 9-36.3 47-36.3 47l25.6 46.3z"/>
												</g>
											</g>
										</g>
									</g>
								</g>
							</g>
						</g>
						<g id="&lt;Group&gt;" style="opacity: .6">
							<g id="&lt;Group&gt;">
								<g id="&lt;Group&gt;">
									<g id="&lt;Group&gt;">
										<g id="&lt;Group&gt;">
											<g id="&lt;Group&gt;">
												<g id="&lt;Group&gt;">
													<g id="&lt;Group&gt;">
														<path id="&lt;Path&gt;" class="s2" d="m688.6 732.4c-2 0.4-4.2-1-4.7-3-0.5-2 0.9-4.2 2.9-4.7 2-0.4 4.7 1.1 5 3.2 0.2 2-1.5 4.6-3.6 4.6"/>
													</g>
												</g>
											</g>
										</g>
									</g>
								</g>
							</g>
						</g>
						<g id="&lt;Group&gt;">
							<g id="&lt;Group&gt;">
								<g id="&lt;Group&gt;">
									<g id="&lt;Group&gt;">
										<g id="&lt;Group&gt;">
											<g id="&lt;Group&gt;">
												<g id="&lt;Group&gt;">
													<path id="&lt;Path&gt;" class="s4" d="m751.4 666.2c1.3 3.9-1.1 6.6-1.1 6.6l-88.6 44.5-3.7-7.4z"/>
												</g>
											</g>
										</g>
									</g>
								</g>
							</g>
						</g>
						<g id="&lt;Group&gt;">
							<g id="&lt;Group&gt;">
								<g id="&lt;Group&gt;">
									<g id="&lt;Group&gt;">
										<g id="&lt;Group&gt;">
											<g id="&lt;Group&gt;">
												<g id="&lt;Group&gt;">
													<g id="&lt;Group&gt;">
														<path id="&lt;Path&gt;" class="s4" d="m711 715.7c-3.6-0.3-5.6-2.6-5.2-2.9 0.3-0.4 2.4 1 5.3 1.2 3 0.3 5.3-0.6 5.6-0.2 0.3 0.4-2.2 2.3-5.7 1.9z"/>
													</g>
												</g>
											</g>
										</g>
									</g>
								</g>
							</g>
						</g>
						<g id="&lt;Group&gt;">
							<g id="&lt;Group&gt;">
								<g id="&lt;Group&gt;">
									<g id="&lt;Group&gt;">
										<g id="&lt;Group&gt;">
											<g id="&lt;Group&gt;">
												<g id="&lt;Group&gt;">
													<g id="&lt;Group&gt;">
														<path id="&lt;Path&gt;" class="s4" d="m718.6 705.2c-3.1-1.3-4.1-4.1-3.6-4.2 0.4-0.3 1.8 1.6 4.3 2.6 2.5 1.1 4.8 0.9 5 1.4 0.2 0.4-2.6 1.6-5.7 0.2z"/>
													</g>
												</g>
											</g>
										</g>
									</g>
								</g>
							</g>
						</g>
						<g id="&lt;Group&gt;">
							<g id="&lt;Group&gt;">
								<g id="&lt;Group&gt;">
									<g id="&lt;Group&gt;">
										<g id="&lt;Group&gt;">
											<g id="&lt;Group&gt;">
												<g id="&lt;Group&gt;">
													<g id="&lt;Group&gt;">
														<path id="&lt;Path&gt;" class="s4" d="m727.4 693.9c2 1.6 4 2.2 3.9 2.7 0 0.5-2.6 0.6-5-1.3-2.3-1.9-2.9-4.4-2.4-4.5 0.5-0.2 1.5 1.6 3.5 3.1z"/>
													</g>
												</g>
											</g>
										</g>
									</g>
								</g>
							</g>
						</g>
						<g id="&lt;Group&gt;">
							<g id="&lt;Group&gt;">
								<g id="&lt;Group&gt;">
									<g id="&lt;Group&gt;">
										<g id="&lt;Group&gt;">
											<g id="&lt;Group&gt;">
												<g id="&lt;Group&gt;">
													<g id="&lt;Group&gt;">
														<path id="&lt;Path&gt;" class="s4" d="m717.2 729.1c-3 1.3-5.8 0.6-5.7 0.2 0.1-0.5 2.5-0.7 5.1-1.8 2.6-1.1 4.3-2.8 4.7-2.5 0.4 0.3-1 2.8-4.1 4.1z"/>
													</g>
												</g>
											</g>
										</g>
									</g>
								</g>
							</g>
						</g>
					</g>
					<g id="&lt;Group&gt;" style="opacity: .3">
						<g id="&lt;Group&gt;">
							<g id="&lt;Group&gt;">
								<g id="&lt;Group&gt;">
									<g id="&lt;Group&gt;">
										<g id="&lt;Group&gt;">
											<g id="&lt;Group&gt;">
												<path id="&lt;Path&gt;" class="s9" d="m689.8 773.8l-3.7-7.6 44.8-23.2 4.5 8.3z"/>
											</g>
										</g>
									</g>
								</g>
							</g>
						</g>
					</g>
				</g>
				<g id="&lt;Group&gt;">
					<g id="&lt;Group&gt;">
						<path id="&lt;Path&gt;" class="s4" d="m484.2 827.9l14.7-4.7c0 0 27.2-21.8 57.7-19 30.4 2.9 55.1 17.3 55.1 17.3l31.7 17.3 81.5 21.8-46.9-110.7 46.4-19.2c0 0 46.3 74.6 60.3 95.6 14 21 24.6 42.2 26.3 59.5 1.6 17.3-11.4 41.5-47.2 45.6-35.8 4.1-189.1-6.1-189.1-6.1l-117.9-3.4z"/>
					</g>
					<g id="&lt;Group&gt;">
						<g id="&lt;Group&gt;">
							<path id="&lt;Path&gt;" class="s5" d="m484.2 827.9q0 0-0.5 1.6-0.4 1.6-1.3 4.8c-1.2 4.2-3 10.3-5.3 18.4-4.7 16.1-11.5 39.5-20.1 69.3l-0.2-0.4c24.3 0.7 52.7 1.4 84.5 2.3 31.8 0.4 66.9 3.3 104.7 5 18.9 1 38.5 1.8 58.7 2.4 10.1 0.3 20.4 0.5 30.7 0.6 5.2-0.1 10.5 0 15.7-0.2 2.6-0.1 5.3-0.2 7.9-0.4 2.6-0.2 5.3-0.4 7.9-0.9 10.4-1.5 20.8-5.3 29.1-12.3 8.3-6.8 14.1-17.1 14.5-28.1 0.2-1.4 0-2.7 0-4.1-0.2-1.4-0.3-2.8-0.6-4.1-0.5-2.7-1.1-5.5-1.9-8.1-1.5-5.4-3.5-10.6-5.9-15.8-4.7-10.2-10.5-20.1-16.7-29.7-10.9-16.5-21.3-33-31.5-49.3-10.2-16.2-20.2-32.3-30-47.9l0.7 0.2q-23.7 9.8-46.4 19.2l0.3-0.7c16.7 39.5 32.4 76.6 46.9 110.8l0.3 0.8-0.9-0.2c-29.4-7.9-56.7-15.3-81.5-21.9q-12.7-7-24.5-13.5c-3.9-2.1-7.7-4.3-11.5-6.2q-5.8-2.8-11.5-5.1c-15.1-6-29.8-9.4-42.9-10.1-6.6-0.2-12.8 0.7-18.4 2-5.5 1.3-10.5 3.2-15 5.1-8.9 3.9-15.7 8.3-20.5 11.9-5 1.6-8.7 2.7-11.2 3.5-2.4 0.7-3.6 1.1-3.6 1.1 0 0 1.1-0.4 3.5-1.2 2.5-0.8 6.2-2 11.2-3.6 4.8-3.7 11.5-8.1 20.4-12 4.5-2 9.5-3.9 15.1-5.3 5.6-1.3 11.8-2.2 18.5-2 13.2 0.6 27.9 4 43.2 10q5.7 2.2 11.5 5.1c3.9 1.9 7.6 4.1 11.6 6.2q11.7 6.5 24.4 13.4h-0.1c24.8 6.6 52.1 13.9 81.6 21.7l-0.6 0.6c-14.5-34.1-30.2-71.3-46.9-110.7l-0.2-0.5 0.4-0.2q22.7-9.4 46.4-19.2l0.4-0.1 0.2 0.3c9.8 15.7 19.8 31.7 30 48 10.2 16.2 20.5 32.8 31.4 49.3 6.3 9.6 12.2 19.5 16.9 29.8 2.3 5.2 4.4 10.5 5.9 15.9q1.2 4 1.9 8.2c0.3 1.4 0.4 2.8 0.6 4.2 0 1.4 0.2 2.8 0.1 4.2-0.5 11.4-6.5 21.9-14.9 28.9-8.5 7.1-19.1 11-29.7 12.5-2.6 0.5-5.3 0.7-7.9 0.9-2.7 0.2-5.3 0.3-8 0.4-5.2 0.2-10.5 0.1-15.7 0.2-10.4-0.1-20.6-0.3-30.7-0.6-20.2-0.6-39.8-1.5-58.8-2.4-37.8-1.8-72.9-4.8-104.7-5.2-31.7-0.9-60.1-1.8-84.5-2.5h-0.3l0.1-0.4c8.7-29.7 15.6-53.2 20.3-69.3 2.4-8 4.2-14.2 5.5-18.4q0.9-3 1.4-4.7 0.5-1.5 0.5-1.5z"/>
						</g>
					</g>
				</g>
				<g id="&lt;Group&gt;">
					<g id="&lt;Group&gt;">
						<path id="&lt;Path&gt;" class="s5" d="m719.3 858.9c0-0.1 0.7 0 1.9 0.2 1.2 0.2 3 0.6 5.1 1.1 4.3 1.1 10.2 2.7 16.2 5.6 6.2 2.9 11 7 13.7 10.4 0.7 0.9 1.3 1.7 1.7 2.4q0.8 1.1 1.2 2c0.6 1 0.9 1.7 0.8 1.7-0.1 0.1-1.4-2.3-4.3-5.6-2.8-3.3-7.5-7.1-13.5-10-6-2.8-11.8-4.5-16-5.8-4.2-1.2-6.8-1.9-6.8-2z"/>
					</g>
				</g>
			</g>
			<g id="&lt;Group&gt;">
				<g id="&lt;Group&gt;">
					<path id="&lt;Path&gt;" class="s7" d="m219 893.1l-1.8 32.3-18.9-1.1c0 0-6.2 2.1-14.7 3.9-3.1 0.6-12.5 1.6-16.8 1.3-3.8-0.2-9.9 0.2-12.3-1.8-3.4-2.7-5.2-7.4-5.2-7.4-8-3.8-4.5-10.4-4.5-10.4-4.7-5.2 0.7-8.7 0.7-8.7 0 0-4.9-5.1-8.9-10.9-4-5.7-1.4-8.8-1.4-8.8l6 3.9c0 0 15.2 10.3 19.8 11.4 3.4 0.8 14.9 0.1 14.9 0.1 0 0 0.5-2.4-1.5-3.2-1.9-0.8-6.5-2.2-14.4-2-7.9 0.2-10.8-3-12-5-1.2-2 0-5 2.8-4.8 3.1 0.2 28.7-0.7 34.5-0.3 4.1 0.2 25 12.1 25 12.1z"/>
				</g>
				<g id="&lt;Group&gt;">
					<g id="&lt;Group&gt;">
						<path id="&lt;Path&gt;" class="s8" d="m157.6 907.9c-0.1 0.3-3.5-0.7-7.3-2.8-3.8-2.1-6.5-4.3-6.4-4.5 0.2-0.3 3.2 1.6 6.9 3.6 3.8 2 6.9 3.5 6.8 3.7z"/>
					</g>
				</g>
				<g id="&lt;Group&gt;">
					<g id="&lt;Group&gt;">
						<path id="&lt;Path&gt;" class="s8" d="m155.1 915.2c-0.1 0.2-2.8-0.4-5.9-2-3.1-1.6-5.1-3.5-5-3.7 0.2-0.3 2.5 1.2 5.5 2.8 3 1.6 5.5 2.6 5.4 2.9z"/>
					</g>
				</g>
				<g id="&lt;Group&gt;">
					<g id="&lt;Group&gt;">
						<path id="&lt;Path&gt;" class="s8" d="m155.5 922.9c0 0.3-2.5-0.1-5.2-1.4-2.7-1.4-4.5-3.2-4.3-3.4 0.2-0.2 2.2 1.1 4.8 2.4 2.6 1.3 4.8 2.1 4.7 2.4z"/>
					</g>
				</g>
			</g>
			<g id="&lt;Group&gt;" style="opacity: .3">
				<g id="&lt;Group&gt;">
					<path id="&lt;Path&gt;" class="s9" d="m383.9 794.3c0.9 17.5 1.4 34.1-0.8 51.5-2.2 17.4-7.7 34.8-18.4 48.7 9.2-31.9 15.5-64.8 19.2-100.2z"/>
				</g>
			</g>
			<g id="&lt;Group&gt;">
				<g id="&lt;Group&gt;">
					<path id="&lt;Path&gt;" class="s6" d="m385.8 774c0.2 1.7 0-3.9 0-1.9-0.5 23.9-14.6 125.7-32.9 145.6-14 15.1-144.9 8.7-144.9 8.7l1.5-34.1c0 0 3.5-1.1 27-4 23.5-2.9 71.4-15.3 71.4-15.3l16.2-106.6"/>
				</g>
				<g id="&lt;Group&gt;">
					<g id="&lt;Group&gt;">
						<path id="&lt;Path&gt;" class="s4" d="m324.1 766.4c0 0-0.1 0.7-0.3 2q-0.2 1.9-0.7 5.6c-0.8 4.9-1.8 12.1-3.2 21.4-2.7 18.5-6.7 45.2-11.6 77.7v0.3h-0.3c-14 3.6-29.3 7.3-45.8 10.8-8.2 1.7-16.8 3.4-25.6 4.6-8.8 1.2-18 2.2-27 4l0.4-0.5c-0.5 10.9-1 22.4-1.4 34.1l-0.5-0.6c9.2 0.5 19 0.8 28.9 1 18.8 0.5 37 0.6 54.7 0.1 8.8-0.3 17.5-0.7 25.9-1.4 8.5-0.7 16.8-1.6 24.6-3.5 2-0.5 3.9-1.1 5.7-1.8 1.8-0.8 3.6-1.7 4.8-3.1 2.6-2.9 4.4-6.3 6-9.8 3.2-7 5.5-14.1 7.6-21 4-13.8 6.8-27 9.1-39 4.7-24.1 7.3-43.8 8.8-57.5 0.8-6.8 1.2-12.1 1.4-15.7q0-1.3 0.1-2.4v-0.1c0 0.1 0 0 0.1 0 0.1 0 0 0 0.1 0 0 0.1 0 0 0 0.1v0.1 0.2q0 0.3 0 0.5 0 0.4 0 0.8c0 0.4 0.1 0.8-0.1 1 0-0.2 0-0.3 0-0.3q0 0 0 0.3c0-0.2 0-0.6 0-1q0-0.4 0-0.8 0-0.2-0.1-0.4v-0.3-0.1c0 0 0 0 0.2 0q-0.1 1.1-0.1 2.4c-0.1 3.6-0.5 8.9-1.2 15.8-1.4 13.6-3.9 33.4-8.4 57.5-2.3 12.1-5.1 25.3-9.1 39.2-2 6.9-4.3 14-7.5 21.1-1.6 3.5-3.5 7-6.2 10.1-1.4 1.5-3.3 2.5-5.1 3.3-1.9 0.7-3.9 1.3-5.9 1.8-7.9 2-16.2 2.9-24.7 3.6-8.5 0.7-17.1 1.1-26 1.4-17.7 0.5-36 0.4-54.7 0-9.9-0.3-19.7-0.6-29-1l-0.5-0.1v-0.5c0.5-11.7 1-23.2 1.5-34.1v-0.3l0.3-0.1c4.7-1 9.2-1.6 13.8-2.2q6.7-0.9 13.4-1.8c8.8-1.1 17.3-2.8 25.5-4.5 16.5-3.5 31.8-7.1 45.8-10.7l-0.3 0.4c5-32.5 9.1-59.2 12-77.7 1.4-9.2 2.5-16.4 3.3-21.4q0.6-3.6 0.9-5.6c0.2-1.2 0.4-1.9 0.4-1.9z"/>
					</g>
				</g>
			</g>
		</g>
	</g>
</svg>